<svg width="24" height="24" viewBox="0 0 24 24" fill="none" xmlns="http://www.w3.org/2000/svg">
<path d="M12.341 20C11.777 20 11.245 19.78 10.846 19.381L6.619 15.154C6.22 14.755 6 14.224 6 13.659C6 13.094 6.22 12.563 6.62 12.164L14.784 4H22V11.216L13.835 19.381C13.437 19.78 12.906 20 12.341 20ZM15.612 6L8.033 13.579V13.74L12.26 17.967H12.421L20 10.388V6H15.612Z" fill="black"/>
<path d="M6.95 20.263L1.586 14.899C1.208 14.521 1 14.02 1 13.485C1 12.95 1.208 12.448 1.586 12.07L9.364 4.29199L10.778 5.70599L3 13.485L8.364 18.849L6.95 20.263ZM17 7.99999C16.7348 7.99999 16.4804 8.10535 16.2929 8.29289C16.1054 8.48042 16 8.73478 16 8.99999C16 9.26521 16.1054 9.51956 16.2929 9.7071C16.4804 9.89464 16.7348 9.99999 17 9.99999C17.2652 9.99999 17.5196 9.89464 17.7071 9.7071C17.8946 9.51956 18 9.26521 18 8.99999C18 8.73478 17.8946 8.48042 17.7071 8.29289C17.5196 8.10535 17.2652 7.99999 17 7.99999Z" fill="black"/>
</svg>
