<svg width="1440" height="824" viewBox="0 0 1440 824" fill="none" xmlns="http://www.w3.org/2000/svg">
<mask id="mask0" mask-type="alpha" maskUnits="userSpaceOnUse" x="0" y="0" width="1440" height="824">
<rect width="1440" height="824" fill="white"/>
</mask>
<g mask="url(#mask0)">
<mask id="path-2-inside-1" fill="white">
<path d="M-135.868 417.866L-12.3845 418.323L49.7532 525.949L-11.5924 633.117L-135.075 632.66L-197.213 525.034L-135.868 417.866Z"/>
<path d="M541.838 26.592L665.321 27.0493L727.459 134.675L666.114 241.843L542.63 241.386L480.493 133.76L541.838 26.592Z"/>
<path d="M767.74 -103.832L891.223 -103.375L953.361 4.25062L892.015 111.419L768.532 110.962L706.394 3.33593L767.74 -103.832Z"/>
<path d="M-113.219 978.793L10.2646 979.25L72.4023 1086.88L11.0568 1194.04L-112.427 1193.59L-174.564 1085.96L-113.219 978.793Z"/>
<path d="M112.683 848.369L236.166 848.826L298.304 956.452L236.959 1063.62L113.475 1063.16L51.3377 955.537L112.683 848.369Z"/>
<path d="M338.585 717.944L462.068 718.402L524.206 826.027L462.861 933.195L339.377 932.738L277.24 825.112L338.585 717.944Z"/>
<path d="M564.487 587.52L687.97 587.977L750.108 695.603L688.762 802.771L565.279 802.313L503.142 694.688L564.487 587.52Z"/>
<path d="M790.389 457.095L913.872 457.552L976.01 565.178L914.665 672.346L791.181 671.889L729.043 564.263L790.389 457.095Z"/>
<path d="M1016.29 326.67L1139.77 327.128L1201.91 434.753L1140.57 541.922L1017.08 541.464L954.945 433.839L1016.29 326.67Z"/>
<path d="M1242.19 196.246L1365.68 196.703L1427.81 304.329L1366.47 411.497L1242.98 411.04L1180.85 303.414L1242.19 196.246Z"/>
<path d="M1468.09 65.8214L1591.58 66.2786L1653.72 173.904L1592.37 281.073L1468.89 280.615L1406.75 172.99L1468.09 65.8214Z"/>
<path d="M813.038 1018.02L936.521 1018.48L998.659 1126.11L937.313 1233.27L813.83 1232.82L751.693 1125.19L813.038 1018.02Z"/>
<path d="M1038.94 887.598L1162.42 888.055L1224.56 995.681L1163.22 1102.85L1039.73 1102.39L977.594 994.766L1038.94 887.598Z"/>
<path d="M1264.84 757.174L1388.33 757.631L1450.46 865.257L1389.12 972.425L1265.63 971.968L1203.5 864.342L1264.84 757.174Z"/>
<path d="M1490.74 626.749L1614.23 627.206L1676.36 734.832L1615.02 842L1491.54 841.543L1429.4 733.917L1490.74 626.749Z"/>
<path d="M-147.192 137.402L-23.7091 137.859L38.4287 245.485L-22.9168 352.653L-146.4 352.196L-208.538 244.57L-147.192 137.402Z"/>
<path d="M78.7096 6.97748L202.193 7.43482L264.331 115.061L202.985 222.229L79.5018 221.772L17.364 114.146L78.7096 6.97748Z"/>
<path d="M304.611 -123.447L428.095 -122.99L490.233 -15.3639L428.887 91.8044L305.404 91.347L243.266 -16.2787L304.611 -123.447Z"/>
<path d="M-124.543 698.329L-1.05996 698.787L61.0779 806.413L-0.267831 913.581L-123.751 913.124L-185.889 805.498L-124.543 698.329Z"/>
<path d="M101.359 567.905L224.842 568.362L286.98 675.988L225.634 783.156L102.151 782.699L40.0131 675.073L101.359 567.905Z"/>
<path d="M779.064 176.631L902.548 177.088L964.686 284.714L903.34 391.883L779.857 391.425L717.719 283.8L779.064 176.631Z"/>
<path d="M1004.97 46.2066L1128.45 46.664L1190.59 154.29L1129.24 261.458L1005.76 261.001L943.621 153.375L1004.97 46.2066Z"/>
<path d="M1230.87 -84.2179L1354.35 -83.7606L1416.49 23.8653L1355.14 131.034L1231.66 130.576L1169.52 22.9505L1230.87 -84.2179Z"/>
<path d="M349.91 998.408L473.393 998.865L535.531 1106.49L474.185 1213.66L350.702 1213.2L288.564 1105.58L349.91 998.408Z"/>
<path d="M575.811 867.983L699.295 868.441L761.433 976.066L700.087 1083.23L576.604 1082.78L514.466 975.152L575.811 867.983Z"/>
<path d="M801.713 737.559L925.197 738.016L987.334 845.642L925.989 952.81L802.506 952.353L740.368 844.727L801.713 737.559Z"/>
<path d="M1027.62 607.134L1151.1 607.592L1213.24 715.217L1151.89 822.386L1028.41 821.928L966.27 714.303L1027.62 607.134Z"/>
<path d="M1253.52 476.709L1377 477.167L1439.14 584.793L1377.79 691.961L1254.31 691.504L1192.17 583.878L1253.52 476.709Z"/>
<path d="M1479.42 346.285L1602.9 346.742L1665.04 454.368L1603.69 561.537L1480.21 561.079L1418.07 453.454L1479.42 346.285Z"/>
<path d="M1502.07 907.212L1625.55 907.67L1687.69 1015.3L1626.34 1122.46L1502.86 1122.01L1440.72 1014.38L1502.07 907.212Z"/>
</mask>
<path d="M-135.868 417.866L-12.3845 418.323L49.7532 525.949L-11.5924 633.117L-135.075 632.66L-197.213 525.034L-135.868 417.866Z" fill="url(#paint0_radial)"/>
<path d="M541.838 26.592L665.321 27.0493L727.459 134.675L666.114 241.843L542.63 241.386L480.493 133.76L541.838 26.592Z" fill="url(#paint1_radial)"/>
<path d="M767.74 -103.832L891.223 -103.375L953.361 4.25062L892.015 111.419L768.532 110.962L706.394 3.33593L767.74 -103.832Z" fill="url(#paint2_radial)"/>
<path d="M-113.219 978.793L10.2646 979.25L72.4023 1086.88L11.0568 1194.04L-112.427 1193.59L-174.564 1085.96L-113.219 978.793Z" fill="url(#paint3_radial)"/>
<path d="M112.683 848.369L236.166 848.826L298.304 956.452L236.959 1063.62L113.475 1063.16L51.3377 955.537L112.683 848.369Z" fill="url(#paint4_radial)"/>
<path d="M338.585 717.944L462.068 718.402L524.206 826.027L462.861 933.195L339.377 932.738L277.24 825.112L338.585 717.944Z" fill="url(#paint5_radial)"/>
<path d="M564.487 587.52L687.97 587.977L750.108 695.603L688.762 802.771L565.279 802.313L503.142 694.688L564.487 587.52Z" fill="url(#paint6_radial)"/>
<path d="M790.389 457.095L913.872 457.552L976.01 565.178L914.665 672.346L791.181 671.889L729.043 564.263L790.389 457.095Z" fill="url(#paint7_radial)"/>
<path d="M1016.29 326.67L1139.77 327.128L1201.91 434.753L1140.57 541.922L1017.08 541.464L954.945 433.839L1016.29 326.67Z" fill="url(#paint8_radial)"/>
<path d="M1242.19 196.246L1365.68 196.703L1427.81 304.329L1366.47 411.497L1242.98 411.04L1180.85 303.414L1242.19 196.246Z" fill="url(#paint9_radial)"/>
<path d="M1468.09 65.8214L1591.58 66.2786L1653.72 173.904L1592.37 281.073L1468.89 280.615L1406.75 172.99L1468.09 65.8214Z" fill="url(#paint10_radial)"/>
<path d="M813.038 1018.02L936.521 1018.48L998.659 1126.11L937.313 1233.27L813.83 1232.82L751.693 1125.19L813.038 1018.02Z" fill="url(#paint11_radial)"/>
<path d="M1038.94 887.598L1162.42 888.055L1224.56 995.681L1163.22 1102.85L1039.73 1102.39L977.594 994.766L1038.94 887.598Z" fill="url(#paint12_radial)"/>
<path d="M1264.84 757.174L1388.33 757.631L1450.46 865.257L1389.12 972.425L1265.63 971.968L1203.5 864.342L1264.84 757.174Z" fill="url(#paint13_radial)"/>
<path d="M1490.74 626.749L1614.23 627.206L1676.36 734.832L1615.02 842L1491.54 841.543L1429.4 733.917L1490.74 626.749Z" fill="url(#paint14_radial)"/>
<path d="M-147.192 137.402L-23.7091 137.859L38.4287 245.485L-22.9168 352.653L-146.4 352.196L-208.538 244.57L-147.192 137.402Z" fill="url(#paint15_radial)"/>
<path d="M78.7096 6.97748L202.193 7.43482L264.331 115.061L202.985 222.229L79.5018 221.772L17.364 114.146L78.7096 6.97748Z" fill="url(#paint16_radial)"/>
<path d="M304.611 -123.447L428.095 -122.99L490.233 -15.3639L428.887 91.8044L305.404 91.347L243.266 -16.2787L304.611 -123.447Z" fill="url(#paint17_radial)"/>
<path d="M-124.543 698.329L-1.05996 698.787L61.0779 806.413L-0.267831 913.581L-123.751 913.124L-185.889 805.498L-124.543 698.329Z" fill="url(#paint18_radial)"/>
<path d="M101.359 567.905L224.842 568.362L286.98 675.988L225.634 783.156L102.151 782.699L40.0131 675.073L101.359 567.905Z" fill="url(#paint19_radial)"/>
<path d="M779.064 176.631L902.548 177.088L964.686 284.714L903.34 391.883L779.857 391.425L717.719 283.8L779.064 176.631Z" fill="url(#paint20_radial)"/>
<path d="M1004.97 46.2066L1128.45 46.664L1190.59 154.29L1129.24 261.458L1005.76 261.001L943.621 153.375L1004.97 46.2066Z" fill="url(#paint21_radial)"/>
<path d="M1230.87 -84.2179L1354.35 -83.7606L1416.49 23.8653L1355.14 131.034L1231.66 130.576L1169.52 22.9505L1230.87 -84.2179Z" fill="url(#paint22_radial)"/>
<path d="M349.91 998.408L473.393 998.865L535.531 1106.49L474.185 1213.66L350.702 1213.2L288.564 1105.58L349.91 998.408Z" fill="url(#paint23_radial)"/>
<path d="M575.811 867.983L699.295 868.441L761.433 976.066L700.087 1083.23L576.604 1082.78L514.466 975.152L575.811 867.983Z" fill="url(#paint24_radial)"/>
<path d="M801.713 737.559L925.197 738.016L987.334 845.642L925.989 952.81L802.506 952.353L740.368 844.727L801.713 737.559Z" fill="url(#paint25_radial)"/>
<path d="M1027.62 607.134L1151.1 607.592L1213.24 715.217L1151.89 822.386L1028.41 821.928L966.27 714.303L1027.62 607.134Z" fill="url(#paint26_radial)"/>
<path d="M1253.52 476.709L1377 477.167L1439.14 584.793L1377.79 691.961L1254.31 691.504L1192.17 583.878L1253.52 476.709Z" fill="url(#paint27_radial)"/>
<path d="M1479.42 346.285L1602.9 346.742L1665.04 454.368L1603.69 561.537L1480.21 561.079L1418.07 453.454L1479.42 346.285Z" fill="url(#paint28_radial)"/>
<path d="M1502.07 907.212L1625.55 907.67L1687.69 1015.3L1626.34 1122.46L1502.86 1122.01L1440.72 1014.38L1502.07 907.212Z" fill="url(#paint29_radial)"/>
<path d="M-176.149 656.373L-175.715 656.622L-175.572 656.372L-175.716 656.123L-176.149 656.373ZM1117.92 -19.0056L1117.92 -18.5057L1118.21 -18.5046L1118.35 -18.7573L1117.92 -19.0056ZM994.434 -19.4629L994.001 -19.2129L994.145 -18.964L994.432 -18.9629L994.434 -19.4629ZM1632.65 42.5651L1632.22 42.3168L1632.07 42.5662L1632.22 42.8151L1632.65 42.5651ZM-187.473 375.91L-187.039 376.158L-186.896 375.909L-187.04 375.66L-187.473 375.91ZM654.789 -38.6202L654.787 -38.1202L655.078 -38.1191L655.223 -38.3718L654.789 -38.6202ZM531.306 -39.0775L530.873 -38.8275L531.016 -38.5786L531.304 -38.5775L531.306 -39.0775ZM-164.824 936.837L-164.39 937.086L-164.247 936.836L-164.391 936.587L-164.824 936.837ZM1581.05 0.609134L1581.04 1.10917L1581.33 1.11023L1581.48 0.857461L1581.05 0.609134ZM1457.56 0.151659L1457.13 0.401659L1457.27 0.650567L1457.56 0.651634L1457.56 0.151659ZM124.008 1128.83L124.009 1128.33L123.718 1128.33L123.574 1128.58L124.008 1128.83ZM247.491 1129.29L247.924 1129.04L247.78 1128.79L247.493 1128.79L247.491 1129.29ZM1643.98 323.029L1643.54 322.78L1643.4 323.03L1643.54 323.279L1643.98 323.029ZM1276.17 1037.64L1276.17 1037.14L1275.88 1037.14L1275.73 1037.39L1276.17 1037.64ZM1399.65 1038.09L1400.08 1037.84L1399.94 1037.6L1399.65 1037.59L1399.65 1038.09ZM-199.232 95.1975L-260.577 202.366L-259.709 202.863L-198.364 95.6943L-199.232 95.1975ZM-238.719 548.998L-176.582 656.623L-175.716 656.123L-237.853 548.498L-238.719 548.998ZM-176.583 656.125L-237.928 763.293L-237.06 763.79L-175.715 656.622L-176.583 656.125ZM1178.83 -126.422L1117.48 -19.254L1118.35 -18.7573L1179.7 -125.925L1178.83 -126.422ZM1117.92 -19.5056L994.436 -19.9629L994.432 -18.9629L1117.92 -18.5057L1117.92 -19.5056ZM994.867 -19.7129L932.729 -127.339L931.863 -126.839L994.001 -19.2129L994.867 -19.7129ZM1343.82 -149.93L1220.34 -150.388L1220.33 -149.388L1343.82 -148.93L1343.82 -149.93ZM-216.07 1109.93L-153.933 1217.55L-153.067 1217.05L-215.204 1109.43L-216.07 1109.93ZM1695.22 149.941L1633.08 42.3151L1632.22 42.8151L1694.36 150.441L1695.22 149.941ZM1633.09 42.8135L1694.43 -64.3549L1693.56 -64.8516L1632.22 42.3168L1633.09 42.8135ZM587.134 1148.95L710.617 1149.4L710.621 1148.4L587.138 1147.95L587.134 1148.95ZM1513.39 1188.18L1636.87 1188.63L1636.88 1187.63L1513.39 1187.18L1513.39 1188.18ZM-250.044 268.534L-187.906 376.16L-187.04 375.66L-249.178 268.034L-250.044 268.534ZM-187.907 375.661L-249.253 482.83L-248.385 483.326L-187.039 376.158L-187.907 375.661ZM715.701 -146.037L654.355 -38.8686L655.223 -38.3718L716.569 -145.54L715.701 -146.037ZM654.791 -39.1202L531.308 -39.5775L531.304 -38.5775L654.787 -38.1202L654.791 -39.1202ZM531.739 -39.3275L469.601 -146.953L468.735 -146.453L530.873 -38.8275L531.739 -39.3275ZM-227.395 829.461L-165.257 937.087L-164.391 936.587L-226.529 828.961L-227.395 829.461ZM-165.258 936.589L-226.604 1043.76L-225.736 1044.25L-164.39 937.086L-165.258 936.589ZM1641.96 -106.807L1580.61 0.360806L1581.48 0.857461L1642.83 -106.311L1641.96 -106.807ZM1581.05 0.109098L1457.56 -0.348316L1457.56 0.651634L1581.04 1.10917L1581.05 0.109098ZM1458 -0.0983413L1395.86 -107.724L1394.99 -107.224L1457.13 0.401659L1458 -0.0983413ZM124.006 1129.33L247.489 1129.79L247.493 1128.79L124.009 1128.33L124.006 1129.33ZM247.058 1129.54L309.196 1237.17L310.062 1236.67L247.924 1129.04L247.058 1129.54ZM63.0961 1236.25L124.442 1129.08L123.574 1128.58L62.2281 1235.75L63.0961 1236.25ZM1706.55 430.404L1644.41 322.779L1643.54 323.279L1705.68 430.904L1706.55 430.404ZM1644.41 323.277L1705.76 216.109L1704.89 215.612L1643.54 322.78L1644.41 323.277ZM1050.26 1168.56L1173.75 1169.02L1173.75 1168.02L1050.27 1167.56L1050.26 1168.56ZM1276.16 1038.14L1399.65 1038.59L1399.65 1037.59L1276.17 1037.14L1276.16 1038.14ZM1399.22 1038.34L1461.35 1145.97L1462.22 1145.47L1400.08 1037.84L1399.22 1038.34ZM1215.25 1145.05L1276.6 1037.89L1275.73 1037.39L1214.39 1144.56L1215.25 1145.05ZM-135.868 417.866L-135.864 416.866L-136.446 416.864L-136.736 417.369L-135.868 417.866ZM-12.3845 418.323L-11.5185 417.823L-11.8059 417.325L-12.3808 417.323L-12.3845 418.323ZM49.7532 525.949L50.6211 526.446L50.9067 525.947L50.6193 525.449L49.7532 525.949ZM-11.5924 633.117L-11.5961 634.117L-11.0138 634.119L-10.7245 633.614L-11.5924 633.117ZM-135.075 632.66L-135.942 633.16L-135.654 633.658L-135.079 633.66L-135.075 632.66ZM-197.213 525.034L-198.081 524.537L-198.367 525.036L-198.079 525.534L-197.213 525.034ZM541.838 26.592L541.842 25.592L541.26 25.5899L540.97 26.0952L541.838 26.592ZM665.321 27.0493L666.188 26.5493L665.9 26.0514L665.325 26.0493L665.321 27.0493ZM727.459 134.675L728.327 135.172L728.613 134.673L728.325 134.175L727.459 134.675ZM666.114 241.843L666.11 242.843L666.692 242.846L666.981 242.34L666.114 241.843ZM542.63 241.386L541.764 241.886L542.052 242.384L542.627 242.386L542.63 241.386ZM480.493 133.76L479.625 133.264L479.339 133.763L479.626 134.26L480.493 133.76ZM767.74 -103.832L767.744 -104.832L767.161 -104.835L766.872 -104.329L767.74 -103.832ZM891.223 -103.375L892.089 -103.875L891.802 -104.373L891.227 -104.375L891.223 -103.375ZM953.361 4.25062L954.229 4.74743L954.514 4.24849L954.227 3.75062L953.361 4.25062ZM892.015 111.419L892.012 112.419L892.594 112.421L892.883 111.916L892.015 111.419ZM768.532 110.962L767.666 111.462L767.953 111.96L768.528 111.962L768.532 110.962ZM706.394 3.33593L705.526 2.83913L705.241 3.33807L705.528 3.83593L706.394 3.33593ZM-113.219 978.793L-113.215 977.793L-113.797 977.791L-114.087 978.296L-113.219 978.793ZM10.2646 979.25L11.1307 978.75L10.8432 978.253L10.2683 978.25L10.2646 979.25ZM72.4023 1086.88L73.2702 1087.37L73.5558 1086.87L73.2683 1086.38L72.4023 1086.88ZM11.0568 1194.04L11.0531 1195.04L11.6354 1195.05L11.9246 1194.54L11.0568 1194.04ZM-112.427 1193.59L-113.293 1194.09L-113.005 1194.58L-112.43 1194.59L-112.427 1193.59ZM-174.564 1085.96L-175.432 1085.46L-175.718 1085.96L-175.43 1086.46L-174.564 1085.96ZM112.683 848.369L112.687 847.369L112.105 847.367L111.815 847.872L112.683 848.369ZM236.166 848.826L237.032 848.326L236.745 847.828L236.17 847.826L236.166 848.826ZM298.304 956.452L299.172 956.948L299.458 956.449L299.17 955.952L298.304 956.452ZM236.959 1063.62L236.955 1064.62L237.537 1064.62L237.826 1064.12L236.959 1063.62ZM113.475 1063.16L112.609 1063.66L112.897 1064.16L113.472 1064.16L113.475 1063.16ZM51.3377 955.537L50.4698 955.04L50.1843 955.539L50.4717 956.037L51.3377 955.537ZM338.585 717.944L338.589 716.944L338.007 716.942L337.717 717.447L338.585 717.944ZM462.068 718.402L462.934 717.902L462.647 717.404L462.072 717.401L462.068 718.402ZM524.206 826.027L525.074 826.524L525.359 826.025L525.072 825.527L524.206 826.027ZM462.861 933.195L462.857 934.195L463.439 934.198L463.728 933.692L462.861 933.195ZM339.377 932.738L338.511 933.238L338.799 933.736L339.374 933.738L339.377 932.738ZM277.24 825.112L276.372 824.616L276.086 825.115L276.374 825.612L277.24 825.112ZM564.487 587.52L564.491 586.52L563.908 586.517L563.619 587.023L564.487 587.52ZM687.97 587.977L688.836 587.477L688.549 586.979L687.974 586.977L687.97 587.977ZM750.108 695.603L750.976 696.099L751.261 695.6L750.974 695.103L750.108 695.603ZM688.762 802.771L688.759 803.771L689.341 803.773L689.63 803.268L688.762 802.771ZM565.279 802.313L564.413 802.813L564.701 803.311L565.276 803.313L565.279 802.313ZM503.142 694.688L502.274 694.191L501.988 694.69L502.276 695.188L503.142 694.688ZM790.389 457.095L790.393 456.095L789.811 456.093L789.521 456.598L790.389 457.095ZM913.872 457.552L914.738 457.052L914.451 456.554L913.876 456.552L913.872 457.552ZM976.01 565.178L976.878 565.675L977.164 565.176L976.876 564.678L976.01 565.178ZM914.665 672.346L914.661 673.346L915.243 673.348L915.532 672.843L914.665 672.346ZM791.181 671.889L790.315 672.389L790.603 672.887L791.178 672.889L791.181 671.889ZM729.043 564.263L728.176 563.766L727.89 564.265L728.177 564.763L729.043 564.263ZM1016.29 326.67L1016.29 325.67L1015.71 325.668L1015.42 326.174L1016.29 326.67ZM1139.77 327.128L1140.64 326.628L1140.35 326.13L1139.78 326.128L1139.77 327.128ZM1201.91 434.753L1202.78 435.25L1203.07 434.751L1202.78 434.253L1201.91 434.753ZM1140.57 541.922L1140.56 542.922L1141.14 542.924L1141.43 542.419L1140.57 541.922ZM1017.08 541.464L1016.22 541.964L1016.5 542.462L1017.08 542.464L1017.08 541.464ZM954.945 433.839L954.077 433.342L953.792 433.841L954.079 434.339L954.945 433.839ZM1242.19 196.246L1242.2 195.246L1241.61 195.244L1241.33 195.749L1242.19 196.246ZM1365.68 196.703L1366.54 196.203L1366.25 195.705L1365.68 195.703L1365.68 196.703ZM1427.81 304.329L1428.68 304.826L1428.97 304.327L1428.68 303.829L1427.81 304.329ZM1366.47 411.497L1366.46 412.497L1367.05 412.499L1367.34 411.994L1366.47 411.497ZM1242.98 411.04L1242.12 411.54L1242.41 412.038L1242.98 412.04L1242.98 411.04ZM1180.85 303.414L1179.98 302.917L1179.69 303.416L1179.98 303.914L1180.85 303.414ZM1468.09 65.8214L1468.1 64.8214L1467.52 64.8193L1467.23 65.3246L1468.09 65.8214ZM1591.58 66.2786L1592.44 65.7786L1592.16 65.2808L1591.58 65.2786L1591.58 66.2786ZM1653.72 173.904L1654.58 174.401L1654.87 173.902L1654.58 173.404L1653.72 173.904ZM1592.37 281.073L1592.37 282.073L1592.95 282.075L1593.24 281.57L1592.37 281.073ZM1468.89 280.615L1468.02 281.115L1468.31 281.613L1468.88 281.615L1468.89 280.615ZM1406.75 172.99L1405.88 172.493L1405.6 172.992L1405.88 173.49L1406.75 172.99ZM813.038 1018.02L813.042 1017.02L812.459 1017.02L812.17 1017.53L813.038 1018.02ZM936.521 1018.48L937.387 1017.98L937.1 1017.48L936.525 1017.48L936.521 1018.48ZM998.659 1126.11L999.527 1126.6L999.813 1126.1L999.525 1125.61L998.659 1126.11ZM937.313 1233.27L937.31 1234.27L937.892 1234.28L938.181 1233.77L937.313 1233.27ZM813.83 1232.82L812.964 1233.32L813.252 1233.81L813.827 1233.82L813.83 1232.82ZM751.693 1125.19L750.825 1124.69L750.539 1125.19L750.827 1125.69L751.693 1125.19ZM1038.94 887.598L1038.94 886.598L1038.36 886.596L1038.07 887.101L1038.94 887.598ZM1162.42 888.055L1163.29 887.555L1163 887.057L1162.43 887.055L1162.42 888.055ZM1224.56 995.681L1225.43 996.178L1225.71 995.679L1225.43 995.181L1224.56 995.681ZM1163.22 1102.85L1163.21 1103.85L1163.79 1103.85L1164.08 1103.35L1163.22 1102.85ZM1039.73 1102.39L1038.87 1102.89L1039.15 1103.39L1039.73 1103.39L1039.73 1102.39ZM977.594 994.766L976.727 994.269L976.441 994.768L976.728 995.266L977.594 994.766ZM1264.84 757.174L1264.85 756.174L1264.26 756.171L1263.97 756.677L1264.84 757.174ZM1388.33 757.631L1389.19 757.131L1388.9 756.633L1388.33 756.631L1388.33 757.631ZM1450.46 865.257L1451.33 865.753L1451.62 865.254L1451.33 864.757L1450.46 865.257ZM1389.12 972.425L1389.11 973.425L1389.7 973.427L1389.99 972.922L1389.12 972.425ZM1265.63 971.968L1264.77 972.468L1265.06 972.966L1265.63 972.968L1265.63 971.968ZM1203.5 864.342L1202.63 863.845L1202.34 864.344L1202.63 864.842L1203.5 864.342ZM1490.74 626.749L1490.75 625.749L1490.17 625.747L1489.88 626.252L1490.74 626.749ZM1614.23 627.206L1615.09 626.706L1614.81 626.208L1614.23 626.206L1614.23 627.206ZM1676.36 734.832L1677.23 735.329L1677.52 734.83L1677.23 734.332L1676.36 734.832ZM1615.02 842L1615.02 843L1615.6 843.002L1615.89 842.497L1615.02 842ZM1491.54 841.543L1490.67 842.043L1490.96 842.541L1491.53 842.543L1491.54 841.543ZM1429.4 733.917L1428.53 733.42L1428.24 733.919L1428.53 734.417L1429.4 733.917ZM-147.192 137.402L-147.189 136.402L-147.771 136.4L-148.06 136.905L-147.192 137.402ZM-23.7091 137.859L-22.8431 137.359L-23.1305 136.862L-23.7054 136.859L-23.7091 137.859ZM38.4287 245.485L39.2966 245.982L39.5821 245.483L39.2947 244.985L38.4287 245.485ZM-22.9168 352.653L-22.9204 353.653L-22.3382 353.656L-22.0489 353.15L-22.9168 352.653ZM-146.4 352.196L-147.266 352.696L-146.979 353.194L-146.404 353.196L-146.4 352.196ZM-208.538 244.57L-209.406 244.074L-209.691 244.573L-209.404 245.07L-208.538 244.57ZM78.7096 6.97748L78.7133 5.9775L78.131 5.97533L77.8418 6.48068L78.7096 6.97748ZM202.193 7.43482L203.059 6.93482L202.772 6.43696L202.197 6.43485L202.193 7.43482ZM264.331 115.061L265.199 115.557L265.484 115.058L265.197 114.561L264.331 115.061ZM202.985 222.229L202.981 223.229L203.564 223.231L203.853 222.726L202.985 222.229ZM79.5018 221.772L78.6357 222.272L78.9232 222.77L79.4981 222.772L79.5018 221.772ZM17.364 114.146L16.4962 113.649L16.2105 114.148L16.498 114.646L17.364 114.146ZM304.611 -123.447L304.615 -124.447L304.033 -124.449L303.744 -123.944L304.611 -123.447ZM428.095 -122.99L428.961 -123.49L428.673 -123.988L428.099 -123.99L428.095 -122.99ZM490.233 -15.3639L491.1 -14.8671L491.386 -15.3661L491.099 -15.8639L490.233 -15.3639ZM428.887 91.8044L428.883 92.8044L429.466 92.8066L429.755 92.3012L428.887 91.8044ZM305.404 91.347L304.538 91.847L304.825 92.3449L305.4 92.347L305.404 91.347ZM243.266 -16.2787L242.398 -16.7755L242.113 -16.2766L242.4 -15.7787L243.266 -16.2787ZM-124.543 698.329L-124.54 697.329L-125.122 697.327L-125.411 697.833L-124.543 698.329ZM-1.05996 698.787L-0.193931 698.287L-0.481376 697.789L-1.05627 697.787L-1.05996 698.787ZM61.0779 806.413L61.9457 806.909L62.2313 806.41L61.9439 805.913L61.0779 806.413ZM-0.267831 913.581L-0.271521 914.581L0.310751 914.583L0.600055 914.078L-0.267831 913.581ZM-123.751 913.124L-124.617 913.624L-124.33 914.121L-123.755 914.124L-123.751 913.124ZM-185.889 805.498L-186.757 805.001L-187.042 805.5L-186.755 805.998L-185.889 805.498ZM101.359 567.905L101.362 566.905L100.78 566.903L100.491 567.408L101.359 567.905ZM224.842 568.362L225.708 567.862L225.42 567.364L224.846 567.362L224.842 568.362ZM286.98 675.988L287.848 676.485L288.133 675.986L287.846 675.488L286.98 675.988ZM225.634 783.156L225.631 784.156L226.213 784.158L226.502 783.653L225.634 783.156ZM102.151 782.699L101.285 783.199L101.572 783.697L102.147 783.699L102.151 782.699ZM40.0131 675.073L39.1452 674.576L38.8596 675.075L39.1471 675.573L40.0131 675.073ZM779.064 176.631L779.068 175.631L778.486 175.629L778.197 176.134L779.064 176.631ZM902.548 177.088L903.414 176.588L903.126 176.091L902.551 176.088L902.548 177.088ZM964.686 284.714L965.553 285.211L965.839 284.712L965.552 284.214L964.686 284.714ZM903.34 391.883L903.336 392.883L903.919 392.885L904.208 392.38L903.34 391.883ZM779.857 391.425L778.991 391.925L779.278 392.423L779.853 392.425L779.857 391.425ZM717.719 283.8L716.851 283.303L716.565 283.802L716.853 284.3L717.719 283.8ZM1004.97 46.2066L1004.97 45.2066L1004.39 45.2044L1004.1 45.7097L1004.97 46.2066ZM1128.45 46.664L1129.32 46.164L1129.03 45.6661L1128.45 45.664L1128.45 46.664ZM1190.59 154.29L1191.46 154.787L1191.74 154.288L1191.45 153.79L1190.59 154.29ZM1129.24 261.458L1129.24 262.458L1129.82 262.46L1130.11 261.955L1129.24 261.458ZM1005.76 261.001L1004.89 261.501L1005.18 261.999L1005.76 262.001L1005.76 261.001ZM943.621 153.375L942.753 152.878L942.467 153.377L942.755 153.875L943.621 153.375ZM1230.87 -84.2179L1230.87 -85.2179L1230.29 -85.2201L1230 -84.7148L1230.87 -84.2179ZM1354.35 -83.7606L1355.22 -84.2606L1354.93 -84.7584L1354.36 -84.7606L1354.35 -83.7606ZM1416.49 23.8653L1417.36 24.3621L1417.64 23.8632L1417.36 23.3653L1416.49 23.8653ZM1355.14 131.034L1355.14 132.034L1355.72 132.036L1356.01 131.53L1355.14 131.034ZM1231.66 130.576L1230.79 131.076L1231.08 131.574L1231.66 131.576L1231.66 130.576ZM1169.52 22.9505L1168.65 22.4537L1168.37 22.9526L1168.66 23.4505L1169.52 22.9505ZM349.91 998.408L349.913 997.408L349.331 997.405L349.042 997.911L349.91 998.408ZM473.393 998.865L474.259 998.365L473.971 997.867L473.397 997.865L473.393 998.865ZM535.531 1106.49L536.398 1106.99L536.684 1106.49L536.397 1105.99L535.531 1106.49ZM474.185 1213.66L474.182 1214.66L474.764 1214.66L475.053 1214.16L474.185 1213.66ZM350.702 1213.2L349.836 1213.7L350.123 1214.2L350.698 1214.2L350.702 1213.2ZM288.564 1105.58L287.696 1105.08L287.411 1105.58L287.698 1106.08L288.564 1105.58ZM575.811 867.983L575.815 866.983L575.233 866.981L574.944 867.486L575.811 867.983ZM699.295 868.441L700.161 867.941L699.874 867.443L699.299 867.441L699.295 868.441ZM761.433 976.066L762.301 976.563L762.586 976.064L762.299 975.566L761.433 976.066ZM700.087 1083.23L700.083 1084.23L700.666 1084.24L700.955 1083.73L700.087 1083.23ZM576.604 1082.78L575.738 1083.28L576.025 1083.78L576.6 1083.78L576.604 1082.78ZM514.466 975.152L513.598 974.655L513.313 975.154L513.6 975.652L514.466 975.152ZM801.713 737.559L801.717 736.559L801.135 736.556L800.846 737.062L801.713 737.559ZM925.197 738.016L926.063 737.516L925.775 737.018L925.2 737.016L925.197 738.016ZM987.334 845.642L988.202 846.139L988.488 845.64L988.201 845.142L987.334 845.642ZM925.989 952.81L925.985 953.81L926.568 953.813L926.857 953.307L925.989 952.81ZM802.506 952.353L801.64 952.853L801.927 953.351L802.502 953.353L802.506 952.353ZM740.368 844.727L739.5 844.23L739.215 844.729L739.502 845.227L740.368 844.727ZM1027.62 607.134L1027.62 606.134L1027.04 606.132L1026.75 606.637L1027.62 607.134ZM1151.1 607.592L1151.96 607.092L1151.68 606.594L1151.1 606.592L1151.1 607.592ZM1213.24 715.217L1214.1 715.714L1214.39 715.215L1214.1 714.717L1213.24 715.217ZM1151.89 822.386L1151.89 823.386L1152.47 823.388L1152.76 822.883L1151.89 822.386ZM1028.41 821.928L1027.54 822.428L1027.83 822.926L1028.4 822.928L1028.41 821.928ZM966.27 714.303L965.402 713.806L965.116 714.305L965.404 714.803L966.27 714.303ZM1253.52 476.709L1253.52 475.709L1252.94 475.707L1252.65 476.213L1253.52 476.709ZM1377 477.167L1377.87 476.667L1377.58 476.169L1377 476.167L1377 477.167ZM1439.14 584.793L1440.01 585.289L1440.29 584.79L1440 584.293L1439.14 584.793ZM1377.79 691.961L1377.79 692.961L1378.37 692.963L1378.66 692.458L1377.79 691.961ZM1254.31 691.504L1253.44 692.004L1253.73 692.501L1254.31 692.504L1254.31 691.504ZM1192.17 583.878L1191.3 583.381L1191.02 583.88L1191.31 584.378L1192.17 583.878ZM1479.42 346.285L1479.42 345.285L1478.84 345.283L1478.55 345.788L1479.42 346.285ZM1602.9 346.742L1603.77 346.242L1603.48 345.745L1602.91 345.743L1602.9 346.742ZM1665.04 454.368L1665.91 454.865L1666.19 454.366L1665.91 453.868L1665.04 454.368ZM1603.69 561.537L1603.69 562.537L1604.27 562.539L1604.56 562.033L1603.69 561.537ZM1480.21 561.079L1479.35 561.579L1479.63 562.077L1480.21 562.079L1480.21 561.079ZM1418.07 453.454L1417.21 452.957L1416.92 453.456L1417.21 453.954L1418.07 453.454ZM1502.07 907.212L1502.07 906.212L1501.49 906.21L1501.2 906.716L1502.07 907.212ZM1625.55 907.67L1626.42 907.17L1626.13 906.672L1625.56 906.67L1625.55 907.67ZM1687.69 1015.3L1688.56 1015.79L1688.84 1015.29L1688.56 1014.8L1687.69 1015.3ZM1626.34 1122.46L1626.34 1123.46L1626.92 1123.47L1627.21 1122.96L1626.34 1122.46ZM1502.86 1122.01L1501.99 1122.51L1502.28 1123L1502.86 1123.01L1502.86 1122.01ZM1440.72 1014.38L1439.86 1013.88L1439.57 1014.38L1439.86 1014.88L1440.72 1014.38ZM-135.872 418.866L-12.3882 419.323L-12.3808 417.323L-135.864 416.866L-135.872 418.866ZM-13.2505 418.823L48.8872 526.449L50.6193 525.449L-11.5185 417.823L-13.2505 418.823ZM48.8854 525.452L-12.4603 632.62L-10.7245 633.614L50.6211 526.446L48.8854 525.452ZM-11.5887 632.117L-135.072 631.66L-135.079 633.66L-11.5961 634.117L-11.5887 632.117ZM-134.209 632.16L-196.347 524.534L-198.079 525.534L-135.942 633.16L-134.209 632.16ZM-196.345 525.531L-135 418.363L-136.736 417.369L-198.081 524.537L-196.345 525.531ZM541.834 27.592L665.318 28.0493L665.325 26.0493L541.842 25.592L541.834 27.592ZM664.455 27.5493L726.593 135.175L728.325 134.175L666.188 26.5493L664.455 27.5493ZM726.591 134.178L665.246 241.347L666.981 242.34L728.327 135.172L726.591 134.178ZM666.117 240.843L542.634 240.386L542.627 242.386L666.11 242.843L666.117 240.843ZM543.496 240.886L481.359 133.26L479.626 134.26L541.764 241.886L543.496 240.886ZM481.36 134.257L542.706 27.0888L540.97 26.0952L479.625 133.264L481.36 134.257ZM767.736 -102.832L891.22 -102.375L891.227 -104.375L767.744 -104.832L767.736 -102.832ZM890.357 -102.875L952.495 4.75062L954.227 3.75062L892.089 -103.875L890.357 -102.875ZM952.493 3.75382L891.147 110.922L892.883 111.916L954.229 4.74743L952.493 3.75382ZM892.019 110.419L768.536 109.962L768.528 111.962L892.012 112.419L892.019 110.419ZM769.398 110.462L707.26 2.83593L705.528 3.83593L767.666 111.462L769.398 110.462ZM707.262 3.83274L768.608 -103.336L766.872 -104.329L705.526 2.83913L707.262 3.83274ZM-113.222 979.793L10.2609 980.25L10.2683 978.25L-113.215 977.793L-113.222 979.793ZM9.3986 979.75L71.5363 1087.38L73.2683 1086.38L11.1307 978.75L9.3986 979.75ZM71.5344 1086.38L10.1889 1193.55L11.9246 1194.54L73.2702 1087.37L71.5344 1086.38ZM11.0605 1193.04L-112.423 1192.59L-112.43 1194.59L11.0531 1195.04L11.0605 1193.04ZM-111.561 1193.09L-173.698 1085.46L-175.43 1086.46L-113.293 1194.09L-111.561 1193.09ZM-173.696 1086.46L-112.351 979.29L-114.087 978.296L-175.432 1085.46L-173.696 1086.46ZM112.679 849.369L236.163 849.826L236.17 847.826L112.687 847.369L112.679 849.369ZM235.3 849.326L297.438 956.952L299.17 955.952L237.032 848.326L235.3 849.326ZM297.436 955.955L236.091 1063.12L237.826 1064.12L299.172 956.948L297.436 955.955ZM236.962 1062.62L113.479 1062.16L113.472 1064.16L236.955 1064.62L236.962 1062.62ZM114.341 1062.66L52.2037 955.037L50.4717 956.037L112.609 1063.66L114.341 1062.66ZM52.2056 956.034L113.551 848.865L111.815 847.872L50.4698 955.04L52.2056 956.034ZM338.581 718.944L462.064 719.402L462.072 717.401L338.589 716.944L338.581 718.944ZM461.202 718.902L523.34 826.527L525.072 825.527L462.934 717.902L461.202 718.902ZM523.338 825.53L461.993 932.699L463.728 933.692L525.074 826.524L523.338 825.53ZM462.864 932.195L339.381 931.738L339.374 933.738L462.857 934.195L462.864 932.195ZM340.243 932.238L278.106 824.612L276.374 825.612L338.511 933.238L340.243 932.238ZM278.107 825.609L339.453 718.441L337.717 717.447L276.372 824.616L278.107 825.609ZM564.483 588.52L687.967 588.977L687.974 586.977L564.491 586.52L564.483 588.52ZM687.104 588.477L749.242 696.103L750.974 695.103L688.836 587.477L687.104 588.477ZM749.24 695.106L687.895 802.274L689.63 803.268L750.976 696.099L749.24 695.106ZM688.766 801.771L565.283 801.313L565.276 803.313L688.759 803.771L688.766 801.771ZM566.145 801.813L504.008 694.188L502.276 695.188L564.413 802.813L566.145 801.813ZM504.01 695.185L565.355 588.016L563.619 587.023L502.274 694.191L504.01 695.185ZM790.385 458.095L913.869 458.552L913.876 456.552L790.393 456.095L790.385 458.095ZM913.006 458.052L975.144 565.678L976.876 564.678L914.738 457.052L913.006 458.052ZM975.142 564.681L913.797 671.849L915.532 672.843L976.878 565.675L975.142 564.681ZM914.668 671.346L791.185 670.889L791.178 672.889L914.661 673.346L914.668 671.346ZM792.047 671.389L729.909 563.763L728.177 564.763L790.315 672.389L792.047 671.389ZM729.911 564.76L791.257 457.592L789.521 456.598L728.176 563.766L729.911 564.76ZM1016.29 327.67L1139.77 328.128L1139.78 326.128L1016.29 325.67L1016.29 327.67ZM1138.91 327.628L1201.05 435.253L1202.78 434.253L1140.64 326.628L1138.91 327.628ZM1201.04 434.257L1139.7 541.425L1141.43 542.419L1202.78 435.25L1201.04 434.257ZM1140.57 540.922L1017.09 540.464L1017.08 542.464L1140.56 542.922L1140.57 540.922ZM1017.95 540.964L955.811 433.339L954.079 434.339L1016.22 541.964L1017.95 540.964ZM955.813 434.336L1017.16 327.167L1015.42 326.174L954.077 433.342L955.813 434.336ZM1242.19 197.246L1365.67 197.703L1365.68 195.703L1242.2 195.246L1242.19 197.246ZM1364.81 197.203L1426.95 304.829L1428.68 303.829L1366.54 196.203L1364.81 197.203ZM1426.95 303.832L1365.6 411L1367.34 411.994L1428.68 304.826L1426.95 303.832ZM1366.47 410.497L1242.99 410.04L1242.98 412.04L1366.46 412.497L1366.47 410.497ZM1243.85 410.54L1181.71 302.914L1179.98 303.914L1242.12 411.54L1243.85 410.54ZM1181.72 303.911L1243.06 196.743L1241.33 195.749L1179.98 302.917L1181.72 303.911ZM1468.09 66.8214L1591.57 67.2786L1591.58 65.2786L1468.1 64.8214L1468.09 66.8214ZM1590.71 66.7786L1652.85 174.404L1654.58 173.404L1592.44 65.7786L1590.71 66.7786ZM1652.85 173.407L1591.5 280.576L1593.24 281.57L1654.58 174.401L1652.85 173.407ZM1592.37 280.073L1468.89 279.615L1468.88 281.615L1592.37 282.073L1592.37 280.073ZM1469.75 280.115L1407.62 172.49L1405.88 173.49L1468.02 281.115L1469.75 280.115ZM1407.62 173.486L1468.96 66.3182L1467.23 65.3246L1405.88 172.493L1407.62 173.486ZM813.034 1019.02L936.518 1019.48L936.525 1017.48L813.042 1017.02L813.034 1019.02ZM935.655 1018.98L997.793 1126.61L999.525 1125.61L937.387 1017.98L935.655 1018.98ZM997.791 1125.61L936.446 1232.78L938.181 1233.77L999.527 1126.6L997.791 1125.61ZM937.317 1232.27L813.834 1231.82L813.827 1233.82L937.31 1234.27L937.317 1232.27ZM814.697 1232.32L752.559 1124.69L750.827 1125.69L812.964 1233.32L814.697 1232.32ZM752.56 1125.69L813.906 1018.52L812.17 1017.53L750.825 1124.69L752.56 1125.69ZM1038.94 888.598L1162.42 889.055L1162.43 887.055L1038.94 886.598L1038.94 888.598ZM1161.56 888.555L1223.7 996.181L1225.43 995.181L1163.29 887.555L1161.56 888.555ZM1223.69 995.184L1162.35 1102.35L1164.08 1103.35L1225.43 996.178L1223.69 995.184ZM1163.22 1101.85L1039.74 1101.39L1039.73 1103.39L1163.21 1103.85L1163.22 1101.85ZM1040.6 1101.89L978.46 994.266L976.728 995.266L1038.87 1102.89L1040.6 1101.89ZM978.462 995.263L1039.81 888.095L1038.07 887.101L976.727 994.269L978.462 995.263ZM1264.84 758.173L1388.32 758.631L1388.33 756.631L1264.85 756.174L1264.84 758.173ZM1387.46 758.131L1449.6 865.757L1451.33 864.757L1389.19 757.131L1387.46 758.131ZM1449.6 864.76L1388.25 971.928L1389.99 972.922L1451.33 865.753L1449.6 864.76ZM1389.12 971.425L1265.64 970.968L1265.63 972.968L1389.11 973.425L1389.12 971.425ZM1266.5 971.468L1204.36 863.842L1202.63 864.842L1264.77 972.468L1266.5 971.468ZM1204.36 864.838L1265.71 757.67L1263.97 756.677L1202.63 863.845L1204.36 864.838ZM1490.74 627.749L1614.22 628.206L1614.23 626.206L1490.75 625.749L1490.74 627.749ZM1613.36 627.706L1675.5 735.332L1677.23 734.332L1615.09 626.706L1613.36 627.706ZM1675.5 734.335L1614.15 841.503L1615.89 842.497L1677.23 735.329L1675.5 734.335ZM1615.02 841L1491.54 840.543L1491.53 842.543L1615.02 843L1615.02 841ZM1492.4 841.043L1430.26 733.417L1428.53 734.417L1490.67 842.043L1492.4 841.043ZM1430.27 734.414L1491.61 627.246L1489.88 626.252L1428.53 733.42L1430.27 734.414ZM-147.196 138.402L-23.7128 138.859L-23.7054 136.859L-147.189 136.402L-147.196 138.402ZM-24.5751 138.359L37.5626 245.985L39.2947 244.985L-22.8431 137.359L-24.5751 138.359ZM37.5608 244.988L-23.7847 352.157L-22.0489 353.15L39.2966 245.982L37.5608 244.988ZM-22.9131 351.653L-146.396 351.196L-146.404 353.196L-22.9204 353.653L-22.9131 351.653ZM-145.534 351.696L-207.672 244.07L-209.404 245.07L-147.266 352.696L-145.534 351.696ZM-207.67 245.067L-146.324 137.899L-148.06 136.905L-209.406 244.074L-207.67 245.067ZM78.7059 7.97746L202.189 8.4348L202.197 6.43485L78.7133 5.9775L78.7059 7.97746ZM201.327 7.93482L263.465 115.561L265.197 114.561L203.059 6.93482L201.327 7.93482ZM263.463 114.564L202.117 221.732L203.853 222.726L265.199 115.557L263.463 114.564ZM202.989 221.229L79.5054 220.772L79.4981 222.772L202.981 223.229L202.989 221.229ZM80.3678 221.272L18.23 113.646L16.498 114.646L78.6357 222.272L80.3678 221.272ZM18.2319 114.643L79.5775 7.47428L77.8418 6.48068L16.4962 113.649L18.2319 114.643ZM304.608 -122.447L428.091 -121.99L428.099 -123.99L304.615 -124.447L304.608 -122.447ZM427.229 -122.49L489.367 -14.8639L491.099 -15.8639L428.961 -123.49L427.229 -122.49ZM489.365 -15.8607L428.019 91.3076L429.755 92.3012L491.1 -14.8671L489.365 -15.8607ZM428.891 90.8044L305.408 90.347L305.4 92.347L428.883 92.8044L428.891 90.8044ZM306.27 90.847L244.132 -16.7787L242.4 -15.7787L304.538 91.847L306.27 90.847ZM244.134 -15.782L305.479 -122.95L303.744 -123.944L242.398 -16.7755L244.134 -15.782ZM-124.547 699.329L-1.06365 699.787L-1.05627 697.787L-124.54 697.329L-124.547 699.329ZM-1.92598 699.287L60.2118 806.913L61.9439 805.913L-0.193931 698.287L-1.92598 699.287ZM60.21 805.916L-1.13572 913.084L0.600055 914.078L61.9457 806.909L60.21 805.916ZM-0.264142 912.581L-123.747 912.124L-123.755 914.124L-0.271521 914.581L-0.264142 912.581ZM-122.885 912.624L-185.023 804.998L-186.755 805.998L-124.617 913.624L-122.885 912.624ZM-185.021 805.995L-123.675 698.826L-125.411 697.833L-186.757 805.001L-185.021 805.995ZM101.355 568.905L224.838 569.362L224.846 567.362L101.362 566.905L101.355 568.905ZM223.976 568.862L286.114 676.488L287.846 675.488L225.708 567.862L223.976 568.862ZM286.112 675.491L224.766 782.66L226.502 783.653L287.848 676.485L286.112 675.491ZM225.638 782.156L102.155 781.699L102.147 783.699L225.631 784.156L225.638 782.156ZM103.017 782.199L40.8791 674.573L39.1471 675.573L101.285 783.199L103.017 782.199ZM40.881 675.57L102.227 568.402L100.491 567.408L39.1452 674.576L40.881 675.57ZM779.061 177.631L902.544 178.088L902.551 176.088L779.068 175.631L779.061 177.631ZM901.682 177.588L963.82 285.214L965.552 284.214L903.414 176.588L901.682 177.588ZM963.818 284.218L902.472 391.386L904.208 392.38L965.553 285.211L963.818 284.218ZM903.344 390.883L779.86 390.425L779.853 392.425L903.336 392.883L903.344 390.883ZM780.723 390.925L718.585 283.3L716.853 284.3L778.991 391.925L780.723 390.925ZM718.587 284.296L779.932 177.128L778.197 176.134L716.851 283.303L718.587 284.296ZM1004.96 47.2066L1128.45 47.664L1128.45 45.664L1004.97 45.2066L1004.96 47.2066ZM1127.58 47.164L1189.72 154.79L1191.45 153.79L1129.32 46.164L1127.58 47.164ZM1189.72 153.793L1128.37 260.961L1130.11 261.955L1191.46 154.787L1189.72 153.793ZM1129.25 260.458L1005.76 260.001L1005.76 262.001L1129.24 262.458L1129.25 260.458ZM1006.62 260.501L944.487 152.875L942.755 153.875L1004.89 261.501L1006.62 260.501ZM944.489 153.872L1005.83 46.7034L1004.1 45.7097L942.753 152.878L944.489 153.872ZM1230.86 -83.2179L1354.35 -82.7606L1354.36 -84.7606L1230.87 -85.2179L1230.86 -83.2179ZM1353.49 -83.2606L1415.62 24.3653L1417.36 23.3653L1355.22 -84.2606L1353.49 -83.2606ZM1415.62 23.3685L1354.28 130.537L1356.01 131.53L1417.36 24.3621L1415.62 23.3685ZM1355.15 130.034L1231.66 129.576L1231.66 131.576L1355.14 132.034L1355.15 130.034ZM1232.53 130.076L1170.39 22.4505L1168.66 23.4505L1230.79 131.076L1232.53 130.076ZM1170.39 23.4473L1231.74 -83.7211L1230 -84.7148L1168.65 22.4537L1170.39 23.4473ZM349.906 999.408L473.389 999.865L473.397 997.865L349.913 997.408L349.906 999.408ZM472.527 999.365L534.665 1106.99L536.397 1105.99L474.259 998.365L472.527 999.365ZM534.663 1105.99L473.317 1213.16L475.053 1214.16L536.398 1106.99L534.663 1105.99ZM474.189 1212.66L350.706 1212.2L350.698 1214.2L474.182 1214.66L474.189 1212.66ZM351.568 1212.7L289.43 1105.08L287.698 1106.08L349.836 1213.7L351.568 1212.7ZM289.432 1106.07L350.778 998.904L349.042 997.911L287.696 1105.08L289.432 1106.07ZM575.808 868.983L699.291 869.441L699.299 867.441L575.815 866.983L575.808 868.983ZM698.429 868.941L760.567 976.566L762.299 975.566L700.161 867.941L698.429 868.941ZM760.565 975.57L699.219 1082.74L700.955 1083.73L762.301 976.563L760.565 975.57ZM700.091 1082.23L576.607 1081.78L576.6 1083.78L700.083 1084.23L700.091 1082.23ZM577.47 1082.28L515.332 974.652L513.6 975.652L575.738 1083.28L577.47 1082.28ZM515.334 975.648L576.679 868.48L574.944 867.486L513.598 974.655L515.334 975.648ZM801.71 738.559L925.193 739.016L925.2 737.016L801.717 736.559L801.71 738.559ZM924.331 738.516L986.468 846.142L988.201 845.142L926.063 737.516L924.331 738.516ZM986.467 845.145L925.121 952.314L926.857 953.307L988.202 846.139L986.467 845.145ZM925.993 951.81L802.509 951.353L802.502 953.353L925.985 953.81L925.993 951.81ZM803.372 951.853L741.234 844.227L739.502 845.227L801.64 952.853L803.372 951.853ZM741.236 845.224L802.581 738.055L800.846 737.062L739.5 844.23L741.236 845.224ZM1027.61 608.134L1151.1 608.591L1151.1 606.592L1027.62 606.134L1027.61 608.134ZM1150.23 608.092L1212.37 715.717L1214.1 714.717L1151.96 607.092L1150.23 608.092ZM1212.37 714.72L1151.02 821.889L1152.76 822.883L1214.1 715.714L1212.37 714.72ZM1151.89 821.386L1028.41 820.928L1028.4 822.928L1151.89 823.386L1151.89 821.386ZM1029.27 821.428L967.136 713.803L965.404 714.803L1027.54 822.428L1029.27 821.428ZM967.138 714.799L1028.48 607.631L1026.75 606.637L965.402 713.806L967.138 714.799ZM1253.51 477.709L1377 478.167L1377 476.167L1253.52 475.709L1253.51 477.709ZM1376.13 477.667L1438.27 585.293L1440 584.293L1377.87 476.667L1376.13 477.667ZM1438.27 584.296L1376.93 691.464L1378.66 692.458L1440.01 585.289L1438.27 584.296ZM1377.8 690.961L1254.31 690.504L1254.31 692.504L1377.79 692.961L1377.8 690.961ZM1255.18 691.004L1193.04 583.378L1191.31 584.378L1253.44 692.004L1255.18 691.004ZM1193.04 584.375L1254.39 477.206L1252.65 476.213L1191.3 583.381L1193.04 584.375ZM1479.42 347.285L1602.9 347.742L1602.91 345.743L1479.42 345.285L1479.42 347.285ZM1602.04 347.242L1664.17 454.868L1665.91 453.868L1603.77 346.242L1602.04 347.242ZM1664.17 453.871L1602.83 561.04L1604.56 562.033L1665.91 454.865L1664.17 453.871ZM1603.7 560.537L1480.22 560.079L1480.21 562.079L1603.69 562.537L1603.7 560.537ZM1481.08 560.579L1418.94 452.954L1417.21 453.954L1479.35 561.579L1481.08 560.579ZM1418.94 453.95L1480.29 346.782L1478.55 345.788L1417.21 452.957L1418.94 453.95ZM1502.06 908.212L1625.55 908.67L1625.56 906.67L1502.07 906.212L1502.06 908.212ZM1624.69 908.17L1686.82 1015.8L1688.56 1014.8L1626.42 907.17L1624.69 908.17ZM1686.82 1014.8L1625.48 1121.97L1627.21 1122.96L1688.56 1015.79L1686.82 1014.8ZM1626.35 1121.46L1502.86 1121.01L1502.86 1123.01L1626.34 1123.46L1626.35 1121.46ZM1503.73 1121.51L1441.59 1013.88L1439.86 1014.88L1501.99 1122.51L1503.73 1121.51ZM1441.59 1014.88L1502.94 907.709L1501.2 906.716L1439.86 1013.88L1441.59 1014.88Z" fill="url(#paint30_radial)" mask="url(#path-2-inside-1)"/>
</g>
<defs>
<radialGradient id="paint0_radial" cx="0" cy="0" r="1" gradientUnits="userSpaceOnUse" gradientTransform="translate(609.642 274.45) rotate(60) scale(2097.15 2973.46)">
<stop offset="0.0716383" stop-color="#FFFBE9"/>
<stop offset="1" stop-color="white" stop-opacity="0"/>
</radialGradient>
<radialGradient id="paint1_radial" cx="0" cy="0" r="1" gradientUnits="userSpaceOnUse" gradientTransform="translate(609.642 274.45) rotate(60) scale(2097.15 2973.46)">
<stop offset="0.0716383" stop-color="#FFFBE9"/>
<stop offset="1" stop-color="white" stop-opacity="0"/>
</radialGradient>
<radialGradient id="paint2_radial" cx="0" cy="0" r="1" gradientUnits="userSpaceOnUse" gradientTransform="translate(609.642 274.45) rotate(60) scale(2097.15 2973.46)">
<stop offset="0.0716383" stop-color="#FFFBE9"/>
<stop offset="1" stop-color="white" stop-opacity="0"/>
</radialGradient>
<radialGradient id="paint3_radial" cx="0" cy="0" r="1" gradientUnits="userSpaceOnUse" gradientTransform="translate(609.642 274.45) rotate(60) scale(2097.15 2973.46)">
<stop offset="0.0716383" stop-color="#FFFBE9"/>
<stop offset="1" stop-color="white" stop-opacity="0"/>
</radialGradient>
<radialGradient id="paint4_radial" cx="0" cy="0" r="1" gradientUnits="userSpaceOnUse" gradientTransform="translate(609.642 274.45) rotate(60) scale(2097.15 2973.46)">
<stop offset="0.0716383" stop-color="#FFFBE9"/>
<stop offset="1" stop-color="white" stop-opacity="0"/>
</radialGradient>
<radialGradient id="paint5_radial" cx="0" cy="0" r="1" gradientUnits="userSpaceOnUse" gradientTransform="translate(609.642 274.45) rotate(60) scale(2097.15 2973.46)">
<stop offset="0.0716383" stop-color="#FFFBE9"/>
<stop offset="1" stop-color="white" stop-opacity="0"/>
</radialGradient>
<radialGradient id="paint6_radial" cx="0" cy="0" r="1" gradientUnits="userSpaceOnUse" gradientTransform="translate(609.642 274.45) rotate(60) scale(2097.15 2973.46)">
<stop offset="0.0716383" stop-color="#FFFBE9"/>
<stop offset="1" stop-color="white" stop-opacity="0"/>
</radialGradient>
<radialGradient id="paint7_radial" cx="0" cy="0" r="1" gradientUnits="userSpaceOnUse" gradientTransform="translate(609.642 274.45) rotate(60) scale(2097.15 2973.46)">
<stop offset="0.0716383" stop-color="#FFFBE9"/>
<stop offset="1" stop-color="white" stop-opacity="0"/>
</radialGradient>
<radialGradient id="paint8_radial" cx="0" cy="0" r="1" gradientUnits="userSpaceOnUse" gradientTransform="translate(609.642 274.45) rotate(60) scale(2097.15 2973.46)">
<stop offset="0.0716383" stop-color="#FFFBE9"/>
<stop offset="1" stop-color="white" stop-opacity="0"/>
</radialGradient>
<radialGradient id="paint9_radial" cx="0" cy="0" r="1" gradientUnits="userSpaceOnUse" gradientTransform="translate(609.642 274.45) rotate(60) scale(2097.15 2973.46)">
<stop offset="0.0716383" stop-color="#FFFBE9"/>
<stop offset="1" stop-color="white" stop-opacity="0"/>
</radialGradient>
<radialGradient id="paint10_radial" cx="0" cy="0" r="1" gradientUnits="userSpaceOnUse" gradientTransform="translate(609.642 274.45) rotate(60) scale(2097.15 2973.46)">
<stop offset="0.0716383" stop-color="#FFFBE9"/>
<stop offset="1" stop-color="white" stop-opacity="0"/>
</radialGradient>
<radialGradient id="paint11_radial" cx="0" cy="0" r="1" gradientUnits="userSpaceOnUse" gradientTransform="translate(609.642 274.45) rotate(60) scale(2097.15 2973.46)">
<stop offset="0.0716383" stop-color="#FFFBE9"/>
<stop offset="1" stop-color="white" stop-opacity="0"/>
</radialGradient>
<radialGradient id="paint12_radial" cx="0" cy="0" r="1" gradientUnits="userSpaceOnUse" gradientTransform="translate(609.642 274.45) rotate(60) scale(2097.15 2973.46)">
<stop offset="0.0716383" stop-color="#FFFBE9"/>
<stop offset="1" stop-color="white" stop-opacity="0"/>
</radialGradient>
<radialGradient id="paint13_radial" cx="0" cy="0" r="1" gradientUnits="userSpaceOnUse" gradientTransform="translate(609.642 274.45) rotate(60) scale(2097.15 2973.46)">
<stop offset="0.0716383" stop-color="#FFFBE9"/>
<stop offset="1" stop-color="white" stop-opacity="0"/>
</radialGradient>
<radialGradient id="paint14_radial" cx="0" cy="0" r="1" gradientUnits="userSpaceOnUse" gradientTransform="translate(609.642 274.45) rotate(60) scale(2097.15 2973.46)">
<stop offset="0.0716383" stop-color="#FFFBE9"/>
<stop offset="1" stop-color="white" stop-opacity="0"/>
</radialGradient>
<radialGradient id="paint15_radial" cx="0" cy="0" r="1" gradientUnits="userSpaceOnUse" gradientTransform="translate(609.642 274.45) rotate(60) scale(2097.15 2973.46)">
<stop offset="0.0716383" stop-color="#FFFBE9"/>
<stop offset="1" stop-color="white" stop-opacity="0"/>
</radialGradient>
<radialGradient id="paint16_radial" cx="0" cy="0" r="1" gradientUnits="userSpaceOnUse" gradientTransform="translate(609.642 274.45) rotate(60) scale(2097.15 2973.46)">
<stop offset="0.0716383" stop-color="#FFFBE9"/>
<stop offset="1" stop-color="white" stop-opacity="0"/>
</radialGradient>
<radialGradient id="paint17_radial" cx="0" cy="0" r="1" gradientUnits="userSpaceOnUse" gradientTransform="translate(609.642 274.45) rotate(60) scale(2097.15 2973.46)">
<stop offset="0.0716383" stop-color="#FFFBE9"/>
<stop offset="1" stop-color="white" stop-opacity="0"/>
</radialGradient>
<radialGradient id="paint18_radial" cx="0" cy="0" r="1" gradientUnits="userSpaceOnUse" gradientTransform="translate(609.642 274.45) rotate(60) scale(2097.15 2973.46)">
<stop offset="0.0716383" stop-color="#FFFBE9"/>
<stop offset="1" stop-color="white" stop-opacity="0"/>
</radialGradient>
<radialGradient id="paint19_radial" cx="0" cy="0" r="1" gradientUnits="userSpaceOnUse" gradientTransform="translate(609.642 274.45) rotate(60) scale(2097.15 2973.46)">
<stop offset="0.0716383" stop-color="#FFFBE9"/>
<stop offset="1" stop-color="white" stop-opacity="0"/>
</radialGradient>
<radialGradient id="paint20_radial" cx="0" cy="0" r="1" gradientUnits="userSpaceOnUse" gradientTransform="translate(609.642 274.45) rotate(60) scale(2097.15 2973.46)">
<stop offset="0.0716383" stop-color="#FFFBE9"/>
<stop offset="1" stop-color="white" stop-opacity="0"/>
</radialGradient>
<radialGradient id="paint21_radial" cx="0" cy="0" r="1" gradientUnits="userSpaceOnUse" gradientTransform="translate(609.642 274.45) rotate(60) scale(2097.15 2973.46)">
<stop offset="0.0716383" stop-color="#FFFBE9"/>
<stop offset="1" stop-color="white" stop-opacity="0"/>
</radialGradient>
<radialGradient id="paint22_radial" cx="0" cy="0" r="1" gradientUnits="userSpaceOnUse" gradientTransform="translate(609.642 274.45) rotate(60) scale(2097.15 2973.46)">
<stop offset="0.0716383" stop-color="#FFFBE9"/>
<stop offset="1" stop-color="white" stop-opacity="0"/>
</radialGradient>
<radialGradient id="paint23_radial" cx="0" cy="0" r="1" gradientUnits="userSpaceOnUse" gradientTransform="translate(609.642 274.45) rotate(60) scale(2097.15 2973.46)">
<stop offset="0.0716383" stop-color="#FFFBE9"/>
<stop offset="1" stop-color="white" stop-opacity="0"/>
</radialGradient>
<radialGradient id="paint24_radial" cx="0" cy="0" r="1" gradientUnits="userSpaceOnUse" gradientTransform="translate(609.642 274.45) rotate(60) scale(2097.15 2973.46)">
<stop offset="0.0716383" stop-color="#FFFBE9"/>
<stop offset="1" stop-color="white" stop-opacity="0"/>
</radialGradient>
<radialGradient id="paint25_radial" cx="0" cy="0" r="1" gradientUnits="userSpaceOnUse" gradientTransform="translate(609.642 274.45) rotate(60) scale(2097.15 2973.46)">
<stop offset="0.0716383" stop-color="#FFFBE9"/>
<stop offset="1" stop-color="white" stop-opacity="0"/>
</radialGradient>
<radialGradient id="paint26_radial" cx="0" cy="0" r="1" gradientUnits="userSpaceOnUse" gradientTransform="translate(609.642 274.45) rotate(60) scale(2097.15 2973.46)">
<stop offset="0.0716383" stop-color="#FFFBE9"/>
<stop offset="1" stop-color="white" stop-opacity="0"/>
</radialGradient>
<radialGradient id="paint27_radial" cx="0" cy="0" r="1" gradientUnits="userSpaceOnUse" gradientTransform="translate(609.642 274.45) rotate(60) scale(2097.15 2973.46)">
<stop offset="0.0716383" stop-color="#FFFBE9"/>
<stop offset="1" stop-color="white" stop-opacity="0"/>
</radialGradient>
<radialGradient id="paint28_radial" cx="0" cy="0" r="1" gradientUnits="userSpaceOnUse" gradientTransform="translate(609.642 274.45) rotate(60) scale(2097.15 2973.46)">
<stop offset="0.0716383" stop-color="#FFFBE9"/>
<stop offset="1" stop-color="white" stop-opacity="0"/>
</radialGradient>
<radialGradient id="paint29_radial" cx="0" cy="0" r="1" gradientUnits="userSpaceOnUse" gradientTransform="translate(609.642 274.45) rotate(60) scale(2097.15 2973.46)">
<stop offset="0.0716383" stop-color="#FFFBE9"/>
<stop offset="1" stop-color="white" stop-opacity="0"/>
</radialGradient>
<radialGradient id="paint30_radial" cx="0" cy="0" r="1" gradientUnits="userSpaceOnUse" gradientTransform="translate(474.701 130.956) rotate(65.0515) scale(2209.59 3099.39)">
<stop offset="0.265201" stop-color="#FBE7C9"/>
<stop offset="0.566867" stop-color="#E5C112"/>
<stop offset="0.613075" stop-color="#FFCD4E"/>
<stop offset="1" stop-color="white" stop-opacity="0"/>
</radialGradient>
</defs>
</svg>
