<svg width="592" height="318" viewBox="0 0 592 318" fill="none" xmlns="http://www.w3.org/2000/svg">
<path d="M558.108 0.832031L592.001 33.3694H566.108C561.69 33.3694 558.108 29.7877 558.108 25.3694V0.832031Z" fill="#D6DCE5"/>
<circle cx="546.809" cy="127.366" r="4.01908" fill="white" stroke="#8349FF"/>
<path d="M326.487 238.084H281.296L269.998 226.787H241.754C235.54 226.787 230.456 231.871 230.456 238.084V305.871C230.456 312.084 235.54 317.168 241.754 317.168H329.311C334.113 317.168 337.784 313.497 337.784 308.695V249.382C337.784 243.168 332.7 238.084 326.487 238.084Z" fill="#FFB539"/>
<g filter="url(#filter0_d)">
<path d="M342.095 286.664H367.853C371.347 286.664 374.18 283.832 374.18 280.337L360.453 277.626H342.095C339.599 277.626 337.575 279.649 337.575 282.145C337.575 284.641 339.599 286.664 342.095 286.664Z" fill="#F5F7F8"/>
</g>
<path d="M333.374 286.664H382.382C384.591 286.664 386.382 284.873 386.382 282.664V236.05L363.504 214.359H333.374C328.956 214.359 325.374 217.94 325.374 222.359V278.664C325.374 283.082 328.956 286.664 333.374 286.664Z" fill="white"/>
<path d="M348.128 225.656H334.254C333.717 225.656 333.283 226.091 333.283 226.628V240.502C333.283 241.039 333.717 241.473 334.254 241.473H348.128C348.665 241.473 349.099 241.039 349.099 240.502V226.628C349.099 226.091 348.665 225.656 348.128 225.656ZM343.728 228.154C343.479 228.128 343.201 228.167 342.896 228.27C342.59 228.373 342.409 228.524 342.353 228.722C342.297 228.919 342.269 229.388 342.269 230.127V236.912C342.269 237.703 342.301 238.187 342.366 238.364C342.431 238.54 342.555 238.686 342.741 238.802C342.926 238.918 343.255 238.976 343.728 238.976V239.17H338.655V238.976C339.292 238.976 339.688 238.853 339.843 238.609C339.998 238.364 340.076 237.807 340.076 236.938V230.295C340.076 229.392 339.99 228.801 339.817 228.522C339.645 228.242 339.258 228.12 338.656 228.154V227.96H343.729V228.154H343.728Z" fill="#2F3032"/>
<rect x="331.477" y="259.55" width="35.0794" height="2.25954" rx="1.12977" fill="#8349FF"/>
<rect x="331.477" y="270.094" width="40.4176" height="2.25954" rx="1.12977" fill="#8349FF"/>
<rect x="331.477" y="254.278" width="39.655" height="2.25954" rx="1.12977" fill="#8349FF"/>
<rect x="331.477" y="264.822" width="39.655" height="2.25954" rx="1.12977" fill="#DEE3EA"/>
<rect x="331.477" y="275.366" width="39.655" height="2.25954" rx="1.12977" fill="#DEE3EA"/>
<rect x="331.477" y="249.005" width="48.8061" height="2.25954" rx="1.12977" fill="#DEE3EA"/>
<path d="M363.503 214.359L386.381 236.05H371.503C367.085 236.05 363.503 232.469 363.503 228.05V214.359Z" fill="#D6DCE5"/>
<g filter="url(#filter1_d)">
<path d="M296.905 286.664H322.663C326.158 286.664 328.99 283.832 328.99 280.337L315.263 277.626H296.905C294.409 277.626 292.386 279.649 292.386 282.145C292.386 284.641 294.409 286.664 296.905 286.664Z" fill="#F5F7F8"/>
</g>
<path d="M288.184 286.664H337.191C339.4 286.664 341.191 284.873 341.191 282.664V236.05L318.313 214.359H288.184C283.765 214.359 280.184 217.94 280.184 222.359V278.664C280.184 283.082 283.765 286.664 288.184 286.664Z" fill="white"/>
<path d="M298.012 241.544H305.264L303.558 239.838L303.546 227.683L305.206 225.768H300.079L296.138 235.463L291.826 225.762H286.495L288.202 227.933V238.254L285.642 241.544H291.614L289.055 238.254V229.068L294.6 241.544L294.599 241.55L299.719 228.98V239.838L298.012 241.544Z" fill="#2F3032"/>
<rect x="286.288" y="259.55" width="35.0794" height="2.25954" rx="1.12977" fill="#F9CF00"/>
<rect x="286.288" y="270.094" width="40.4176" height="2.25954" rx="1.12977" fill="#F9CF00"/>
<rect x="286.288" y="254.278" width="39.655" height="2.25954" rx="1.12977" fill="#F95A00"/>
<rect x="286.288" y="264.822" width="39.655" height="2.25954" rx="1.12977" fill="#DEE3EA"/>
<rect x="286.288" y="275.366" width="39.655" height="2.25954" rx="1.12977" fill="#DEE3EA"/>
<rect x="286.288" y="249.005" width="48.8061" height="2.25954" rx="1.12977" fill="#DEE3EA"/>
<path d="M318.313 214.359L341.191 236.05H326.313C321.895 236.05 318.313 232.469 318.313 228.05V214.359Z" fill="#D6DCE5"/>
<g filter="url(#filter2_d)">
<path d="M251.714 286.664H277.473C280.967 286.664 283.799 283.832 283.799 280.337L270.073 277.626H251.714C249.218 277.626 247.195 279.649 247.195 282.145C247.195 284.641 249.218 286.664 251.714 286.664Z" fill="#F5F7F8"/>
</g>
<path d="M242.992 286.664H292C294.209 286.664 296 284.873 296 282.664V236.05L273.122 214.359H242.992C238.574 214.359 234.992 217.94 234.992 222.359V278.664C234.992 283.082 238.574 286.664 242.992 286.664Z" fill="white"/>
<path d="M245.727 240.169L242.291 236.067H242.255V240.17H240.654V227.915H242.255V234.838H242.291L245.277 231.983H247.255L243.604 235.375L247.687 240.169H245.727ZM249.297 228.694C249.507 228.89 249.612 229.127 249.612 229.404C249.612 229.681 249.507 229.92 249.297 230.122C249.087 230.324 248.838 230.425 248.551 230.425C248.251 230.425 247.999 230.327 247.795 230.131C247.591 229.935 247.489 229.693 247.489 229.404C247.489 229.139 247.591 228.905 247.795 228.703C247.999 228.502 248.25 228.4 248.551 228.4C248.838 228.4 249.087 228.498 249.297 228.694ZM247.759 240.169V231.983H249.36V240.17H247.759V240.169ZM256.159 240.169V235.202C256.159 234.962 256.144 234.722 256.114 234.483C256.084 234.247 256.021 234.031 255.926 233.834C255.833 233.642 255.688 233.477 255.505 233.358C255.32 233.237 255.072 233.177 254.762 233.177C254.297 233.177 253.852 233.298 253.428 233.54C253.004 233.783 252.626 234.042 252.292 234.319V240.169H250.691V231.983H252.038L252.238 232.917C252.728 232.571 253.203 232.294 253.663 232.086C254.123 231.879 254.652 231.775 255.25 231.775C255.56 231.775 255.865 231.827 256.164 231.931C256.463 232.035 256.732 232.205 256.971 232.441C257.21 232.678 257.401 232.981 257.544 233.35C257.688 233.72 257.759 234.163 257.759 234.683V240.169H256.159V240.169H256.159ZM264.559 240.161C264.067 240.282 263.497 240.342 262.85 240.342C262.239 240.342 261.663 240.256 261.123 240.082C260.584 239.909 260.113 239.65 259.711 239.304C259.31 238.957 258.989 238.525 258.749 238.006C258.509 237.486 258.389 236.875 258.389 236.171C258.389 235.536 258.503 234.951 258.731 234.414C258.959 233.878 259.277 233.413 259.684 233.021C260.092 232.629 260.569 232.323 261.114 232.104C261.66 231.885 262.25 231.775 262.886 231.775C263.162 231.775 263.401 231.787 263.605 231.809C263.81 231.833 263.995 231.861 264.163 231.896V227.915H265.764V239.737C265.452 239.898 265.05 240.039 264.559 240.161ZM264.163 233.229C263.995 233.172 263.827 233.128 263.659 233.099C263.491 233.07 263.257 233.056 262.958 233.056C262.55 233.056 262.166 233.125 261.807 233.264C261.453 233.399 261.131 233.603 260.862 233.863C260.593 234.123 260.38 234.442 260.224 234.818C260.068 235.194 259.99 235.613 259.99 236.076C259.99 236.944 260.247 237.658 260.763 238.219C261.279 238.781 262.046 239.061 263.065 239.061C263.267 239.061 263.469 239.044 263.668 239.009C263.866 238.974 264.031 238.928 264.162 238.87L264.163 233.229V233.229ZM269.127 240.273C268.915 240.32 268.698 240.343 268.48 240.342C267.886 240.342 267.462 240.189 267.207 239.883C266.952 239.578 266.825 239.194 266.825 238.732V227.915H268.426V238.058C268.426 238.415 268.477 238.655 268.579 238.776C268.68 238.897 268.851 238.958 269.091 238.958C269.151 238.958 269.22 238.955 269.298 238.949C269.376 238.944 269.475 238.923 269.595 238.889L269.792 240.014C269.553 240.14 269.331 240.227 269.127 240.273V240.273ZM271.357 236.413C271.357 236.783 271.417 237.126 271.537 237.444C271.652 237.753 271.829 238.039 272.059 238.283C272.286 238.525 272.565 238.716 272.895 238.854C273.225 238.993 273.606 239.062 274.037 239.062C274.409 239.062 274.775 239.007 275.135 238.897C275.495 238.788 275.818 238.652 276.106 238.491L276.556 239.506C276.184 239.768 275.746 239.973 275.243 240.121C274.739 240.269 274.236 240.343 273.732 240.343C273.036 240.343 272.433 240.223 271.924 239.985C271.414 239.745 270.994 239.425 270.665 239.024C270.335 238.623 270.089 238.16 269.927 237.634C269.765 237.11 269.684 236.559 269.684 235.982C269.684 235.394 269.768 234.845 269.936 234.338C270.104 233.83 270.347 233.386 270.665 233.005C270.982 232.624 271.363 232.327 271.807 232.114C272.25 231.9 272.742 231.794 273.282 231.794C273.833 231.794 274.328 231.894 274.765 232.096C275.2 232.296 275.582 232.589 275.881 232.953C276.186 233.323 276.417 233.766 276.573 234.286C276.729 234.805 276.807 235.382 276.807 236.017V236.414H271.357V236.413H271.357ZM275 234.414C274.921 234.155 274.808 233.921 274.658 233.714C274.508 233.506 274.316 233.339 274.082 233.212C273.848 233.085 273.576 233.021 273.264 233.021C272.964 233.021 272.697 233.079 272.464 233.194C272.23 233.31 272.024 233.472 271.861 233.67C271.693 233.872 271.565 234.106 271.474 234.371C271.384 234.64 271.338 234.92 271.339 235.202H275.117C275.116 234.936 275.077 234.67 275 234.414V234.414Z" fill="#2F3032"/>
<rect x="241.094" y="259.55" width="35.0794" height="2.25954" rx="1.12977" fill="#FFD504"/>
<rect x="241.094" y="270.094" width="40.4176" height="2.25954" rx="1.12977" fill="#F9CF00"/>
<rect x="241.094" y="254.278" width="39.655" height="2.25954" rx="1.12977" fill="#DEE3EA"/>
<rect x="241.094" y="264.822" width="39.655" height="2.25954" rx="1.12977" fill="#DEE3EA"/>
<rect x="241.094" y="275.366" width="39.655" height="2.25954" rx="1.12977" fill="#DEE3EA"/>
<rect x="241.094" y="249.005" width="48.8061" height="2.25954" rx="1.12977" fill="#FFD504"/>
<path d="M273.122 214.359L296 236.05H281.122C276.704 236.05 273.122 232.469 273.122 228.05V214.359Z" fill="#D6DCE5"/>
<g filter="url(#filter3_d)">
<path d="M206.524 286.664H232.283C235.777 286.664 238.609 283.832 238.609 280.337L224.883 277.626H206.524C204.028 277.626 202.005 279.649 202.005 282.145C202.005 284.641 204.028 286.664 206.524 286.664Z" fill="#F5F7F8"/>
</g>
<path d="M197.802 286.664H246.809C249.019 286.664 250.809 284.873 250.809 282.664V236.05L227.932 214.359H197.802C193.383 214.359 189.802 217.94 189.802 222.359V278.664C189.802 283.082 193.383 286.664 197.802 286.664Z" fill="white"/>
<path d="M198.052 236.259V239.967H195.902V229.423H199.53C200.582 229.423 201.423 229.747 202.049 230.393C202.675 231.039 202.989 231.879 202.989 232.913C202.989 233.947 202.678 234.762 202.06 235.362C201.441 235.961 200.582 236.259 199.485 236.259H198.052ZM198.052 234.485H199.53C199.939 234.485 200.256 234.352 200.481 234.086C200.705 233.82 200.817 233.435 200.817 232.927C200.817 232.401 200.702 231.982 200.473 231.67C200.244 231.359 199.937 231.201 199.552 231.196H198.052V234.485ZM204.422 239.967V229.423H207.238C208.481 229.423 209.473 229.813 210.21 230.595C210.95 231.377 211.326 232.449 211.341 233.811V235.52C211.341 236.905 210.971 237.993 210.234 238.782C209.494 239.573 208.476 239.967 207.179 239.967H204.422ZM206.572 231.197V238.2H207.216C207.933 238.2 208.438 238.012 208.73 237.638C209.022 237.264 209.176 236.619 209.191 235.702V233.87C209.191 232.885 209.052 232.198 208.774 231.811C208.495 231.422 208.023 231.217 207.355 231.198H206.572V231.197ZM218.377 235.665H215.035V239.967H212.884V229.423H218.779V231.197H215.035V233.899H218.377V235.665Z" fill="#F43737"/>
<rect x="195.905" y="259.55" width="35.0794" height="2.25954" rx="1.12977" fill="#0090F9"/>
<rect x="195.905" y="270.094" width="40.4176" height="2.25954" rx="1.12977" fill="#0090F9"/>
<rect x="195.905" y="254.278" width="39.655" height="2.25954" rx="1.12977" fill="#DEE3EA"/>
<rect x="195.905" y="264.822" width="39.655" height="2.25954" rx="1.12977" fill="#DEE3EA"/>
<rect x="195.905" y="275.366" width="39.655" height="2.25954" rx="1.12977" fill="#DEE3EA"/>
<rect x="195.905" y="249.005" width="48.8061" height="2.25954" rx="1.12977" fill="#DEE3EA"/>
<path d="M227.932 214.359L250.81 236.05H235.932C231.514 236.05 227.932 232.469 227.932 228.05V214.359Z" fill="#D6DCE5"/>
<path d="M338.357 255.031H262.38C257.014 255.031 252.212 258.985 251.365 264.352L241.762 317.168H331.296C336.662 317.168 341.464 313.214 342.311 307.848L349.372 268.306C350.785 261.527 345.418 255.031 338.357 255.031Z" fill="#FFD966"/>
<g clip-path="url(#clip0)">
<path d="M303.041 280.075C301.679 279.177 300.141 278.571 298.526 278.298C296.912 278.025 295.258 278.09 293.67 278.489C292.153 278.935 290.758 279.715 289.59 280.771C288.423 281.826 287.513 283.13 286.931 284.583C286.126 286.475 285.859 288.548 286.16 290.579C286.248 291.158 286.388 291.729 286.577 292.284C287.022 293.521 287.653 294.685 288.451 295.736C289.907 297.689 291.758 299.323 293.887 300.534C296.38 301.931 299.152 302.583 301.681 301.875C304.21 301.167 306.09 299.213 307.273 296.786C308.277 294.681 308.785 292.378 308.759 290.051C308.756 288.759 308.549 287.476 308.145 286.247C307.953 285.687 307.711 285.145 307.424 284.626C306.375 282.769 304.867 281.203 303.041 280.075V280.075Z" fill="url(#paint0_linear)"/>
<path d="M302.664 304.741L299.075 301.736L303.744 300.428L302.664 304.741Z" fill="black"/>
<path d="M303.04 280.075C301.678 279.177 300.14 278.571 298.526 278.298C296.912 278.025 295.257 278.09 293.67 278.489C292.152 278.935 290.757 279.715 289.59 280.771C288.422 281.826 287.513 283.13 286.93 284.583C289.415 283.313 292.024 282.295 294.716 281.545C297.435 280.783 300.223 280.291 303.04 280.075V280.075Z" fill="black"/>
<path d="M286.16 290.579C286.248 291.158 286.388 291.729 286.577 292.284C287.022 293.521 287.653 294.685 288.451 295.736C291.416 293.804 294.676 292.354 298.106 291.439C301.563 290.436 305.156 289.967 308.759 290.051C308.756 288.759 308.549 287.476 308.145 286.247C307.953 285.687 307.712 285.145 307.425 284.626C303.669 284.68 299.938 285.227 296.33 286.256C292.756 287.231 289.334 288.686 286.16 290.579V290.579Z" fill="black"/>
<path d="M293.887 300.535C296.38 301.931 299.152 302.584 301.681 301.875C304.21 301.167 306.089 299.213 307.272 296.786C304.916 296.867 302.579 297.238 300.316 297.891C298.067 298.496 295.906 299.385 293.887 300.535V300.535Z" fill="black"/>
<path opacity="0.86" d="M283.222 283.281C277.084 284.998 274.766 288.684 274.173 292.413C273.626 295.859 281.212 297.043 287.348 295.324C293.485 293.607 296.398 286.192 296.398 286.192C296.398 286.192 289.359 281.563 283.222 283.281Z" fill="url(#paint1_radial)"/>
<path opacity="0.86" d="M309.506 289.167C315.643 287.449 317.962 283.764 318.555 280.035C319.102 276.588 311.516 275.404 305.38 277.123C299.243 278.841 296.33 286.255 296.33 286.255C296.33 286.255 303.369 290.885 309.506 289.167Z" fill="url(#paint2_radial)"/>
<path d="M290.896 275.525C290 274.483 288.26 272.665 286.67 272.192C286.265 272.064 285.831 272.056 285.421 272.17C285.345 272.088 285.247 272.03 285.139 272C285.031 271.971 284.916 271.972 284.809 272.003C284.739 272.019 284.674 272.049 284.617 272.09C284.56 272.132 284.512 272.185 284.477 272.246C284.441 272.307 284.419 272.374 284.411 272.444C284.403 272.513 284.409 272.584 284.43 272.651C284.484 272.787 284.588 272.898 284.721 272.961C284.855 273.024 285.007 273.036 285.149 272.992C285.218 272.976 285.283 272.946 285.339 272.904C285.396 272.863 285.444 272.81 285.479 272.749C285.514 272.688 285.537 272.621 285.545 272.551C285.553 272.482 285.546 272.411 285.525 272.344C285.519 272.325 285.511 272.307 285.502 272.288C285.871 272.186 286.262 272.198 286.625 272.321C289.212 273.09 292.883 277.948 293.175 279.294L293.322 279.268C293.17 278.566 292.128 276.958 290.896 275.525Z" fill="black"/>
<path d="M294.104 274.627C294.192 273.31 294.49 270.921 295.507 269.72C295.761 269.394 296.119 269.163 296.523 269.062C296.535 268.956 296.581 268.856 296.652 268.775C296.724 268.695 296.818 268.638 296.924 268.612C297.065 268.568 297.217 268.58 297.35 268.643C297.483 268.706 297.587 268.817 297.64 268.953C297.661 269.02 297.668 269.091 297.66 269.161C297.652 269.23 297.63 269.298 297.595 269.358C297.559 269.419 297.511 269.472 297.454 269.514C297.397 269.556 297.332 269.585 297.263 269.601C297.122 269.644 296.97 269.633 296.837 269.569C296.704 269.506 296.6 269.395 296.547 269.259C296.54 269.24 296.535 269.221 296.531 269.201C296.171 269.3 295.854 269.51 295.626 269.802C293.97 271.758 293.979 277.642 294.58 278.9L294.445 278.954C294.13 278.297 293.984 276.438 294.104 274.627Z" fill="black"/>
<path d="M293.374 279.032C293.466 279.307 293.501 279.599 293.474 279.888C293.448 280.177 293.361 280.457 293.22 280.712C293.079 280.967 292.886 281.19 292.654 281.367C292.421 281.545 292.154 281.673 291.869 281.745C291.287 281.933 290.655 281.897 290.098 281.645C289.542 281.393 289.102 280.943 288.868 280.384C288.775 280.109 288.741 279.818 288.767 279.529C288.794 279.239 288.881 278.959 289.022 278.704C289.163 278.45 289.356 278.227 289.589 278.049C289.821 277.872 290.088 277.743 290.374 277.672C290.955 277.483 291.588 277.519 292.144 277.771C292.7 278.023 293.139 278.474 293.374 279.032Z" fill="white"/>
<path d="M300.007 277.202C300.099 277.478 300.134 277.769 300.107 278.058C300.081 278.347 299.994 278.627 299.853 278.882C299.712 279.137 299.519 279.36 299.286 279.537C299.054 279.715 298.787 279.843 298.502 279.915C297.92 280.103 297.288 280.068 296.731 279.816C296.175 279.563 295.736 279.113 295.502 278.554C295.409 278.279 295.374 277.988 295.401 277.699C295.427 277.41 295.514 277.129 295.655 276.875C295.796 276.62 295.989 276.397 296.221 276.219C296.454 276.042 296.721 275.913 297.006 275.842C297.588 275.654 298.22 275.689 298.776 275.941C299.333 276.194 299.772 276.644 300.007 277.202V277.202Z" fill="white"/>
<path d="M298.405 277.808C298.433 277.89 298.443 277.976 298.435 278.063C298.427 278.149 298.401 278.233 298.359 278.308C298.317 278.384 298.26 278.451 298.19 278.504C298.121 278.557 298.041 278.595 297.956 278.616C297.783 278.672 297.594 278.662 297.428 278.587C297.263 278.512 297.132 278.377 297.062 278.211C297.034 278.129 297.024 278.042 297.032 277.956C297.039 277.87 297.065 277.786 297.107 277.71C297.149 277.634 297.207 277.568 297.276 277.515C297.345 277.462 297.425 277.423 297.51 277.402C297.683 277.346 297.872 277.356 298.038 277.432C298.204 277.507 298.335 277.641 298.405 277.808V277.808Z" fill="black"/>
<path d="M291.793 279.563C291.821 279.646 291.831 279.732 291.823 279.819C291.815 279.905 291.789 279.989 291.747 280.065C291.705 280.14 291.647 280.207 291.578 280.26C291.509 280.313 291.429 280.351 291.344 280.372C291.171 280.428 290.982 280.417 290.816 280.342C290.651 280.267 290.52 280.133 290.45 279.967C290.423 279.885 290.412 279.798 290.42 279.712C290.428 279.625 290.454 279.542 290.496 279.466C290.538 279.39 290.595 279.324 290.664 279.271C290.734 279.218 290.813 279.179 290.898 279.158C291.072 279.102 291.26 279.112 291.426 279.187C291.592 279.263 291.723 279.397 291.793 279.563Z" fill="black"/>
</g>
<g filter="url(#filter4_d)">
<path d="M24.855 109.29H64.3053C68.7236 109.29 72.3053 105.708 72.3053 101.29V99.8L51.9695 95.7328H24.855C21.1112 95.7328 18.0763 98.7677 18.0763 102.511C18.0763 106.255 21.1112 109.29 24.855 109.29Z" fill="#F5F7F8"/>
</g>
<path d="M8.00001 109.29H82.3817C86.7999 109.29 90.3817 105.709 90.3817 101.29V33.3697L56.4885 0.832275H8C3.58172 0.832275 0 4.414 0 8.83228V101.29C0 105.709 3.58173 109.29 8.00001 109.29Z" fill="white"/>
<path d="M12.2241 33.6822V39.2442H9.03818V23.4274H14.4131C15.9728 23.4274 17.2186 23.9137 18.1459 24.8831C19.0731 25.8525 19.5376 27.1127 19.5376 28.6637C19.5376 30.2147 19.0779 31.4367 18.1617 32.3362C17.2456 33.2357 15.9728 33.6822 14.3465 33.6822H12.2241ZM12.2241 31.0204H14.4131C15.0202 31.0204 15.4893 30.8217 15.8222 30.4229C16.1551 30.024 16.3199 29.4455 16.3199 28.6843C16.3199 27.8945 16.1503 27.2668 15.8111 26.798C15.4719 26.3324 15.017 26.0956 14.4464 26.0877H12.2241V31.0204ZM21.6615 39.2442V23.4274H25.8334C27.6752 23.4274 29.1445 24.0138 30.2366 25.1866C31.3319 26.3594 31.8898 27.9676 31.912 30.0097V32.573C31.912 34.6516 31.3636 36.2836 30.2715 37.466C29.1747 38.6531 27.6673 39.2442 25.7462 39.2442H21.6615ZM24.8459 26.0893V36.5935H25.8001C26.8621 36.5935 27.6102 36.3122 28.0429 35.7513C28.4757 35.1903 28.7039 34.2225 28.7261 32.8463V30.0987C28.7261 28.6208 28.52 27.591 28.1079 27.0094C27.6958 26.4262 26.9952 26.1194 26.0061 26.0908H24.8459V26.0893ZM42.3353 32.7907H37.3836V39.2442H34.1977V23.4274H42.9313V26.0893H37.3836V30.1416H42.3353V32.7907Z" fill="#F43737"/>
<rect x="9.03726" y="68.6183" width="51.9695" height="3.38931" rx="1.69466" fill="#0090F9"/>
<rect x="9.03726" y="84.4351" width="59.8779" height="3.38931" rx="1.69466" fill="#0090F9"/>
<rect x="9.03726" y="60.7099" width="58.7481" height="3.38931" rx="1.69466" fill="#DEE3EA"/>
<rect x="9.03726" y="60.7099" width="58.7481" height="3.38931" rx="1.69466" fill="url(#paint3_linear)"/>
<rect x="9.03726" y="76.5267" width="58.7481" height="3.38931" rx="1.69466" fill="#DEE3EA"/>
<rect x="9.03726" y="76.5267" width="58.7481" height="3.38931" rx="1.69466" fill="url(#paint4_linear)"/>
<rect x="9.03726" y="92.3435" width="58.7481" height="3.38931" rx="1.69466" fill="#DEE3EA"/>
<rect x="9.03726" y="92.3435" width="58.7481" height="3.38931" rx="1.69466" fill="url(#paint5_linear)"/>
<rect x="9.03815" y="52.8015" width="72.3053" height="3.38931" rx="1.69466" fill="#DEE3EA"/>
<rect x="9.03815" y="52.8015" width="72.3053" height="3.38931" rx="1.69466" fill="url(#paint6_linear)"/>
<path d="M56.4886 0.832031L90.3817 33.3694H64.4886C60.0703 33.3694 56.4886 29.7877 56.4886 25.3694V0.832031Z" fill="#D6DCE5"/>
<g filter="url(#filter5_d)">
<path d="M192.06 109.29H231.51C235.929 109.29 239.51 105.708 239.51 101.29V99.8L219.175 95.7328H192.06C188.316 95.7328 185.281 98.7677 185.281 102.511C185.281 106.255 188.316 109.29 192.06 109.29Z" fill="#F5F7F8"/>
</g>
<path d="M175.206 109.29H249.588C254.006 109.29 257.588 105.708 257.588 101.29V33.3694L223.695 0.832031H175.206C170.788 0.832031 167.206 4.41376 167.206 8.83203V101.29C167.206 105.708 170.788 109.29 175.206 109.29Z" fill="white"/>
<path d="M182.742 39.0075L178.341 33.414H178.294V39.0077H176.243V22.2977H178.294V31.7381H178.34L182.166 27.844H184.701L180.023 32.4699L185.254 39.0075H182.742ZM187.317 23.3599C187.585 23.6272 187.72 23.9499 187.72 24.3274C187.72 24.7049 187.585 25.0316 187.317 25.3068C187.048 25.5822 186.729 25.7201 186.36 25.7201C185.976 25.7201 185.654 25.5864 185.392 25.3186C185.131 25.0511 185.001 24.721 185.001 24.3274C185.001 23.9657 185.131 23.6474 185.392 23.3717C185.654 23.0968 185.976 22.9585 186.36 22.9585C186.729 22.9585 187.048 23.0924 187.317 23.3599ZM185.346 39.0075V27.844H187.397V39.0077H185.346V39.0075ZM196.108 39.0075V32.2337C196.108 31.9062 196.089 31.5789 196.05 31.2538C196.012 30.9315 195.932 30.6367 195.81 30.3689C195.691 30.1063 195.504 29.8819 195.27 29.7199C195.033 29.555 194.716 29.4721 194.319 29.4721C193.722 29.4721 193.153 29.6376 192.61 29.968C192.067 30.2984 191.581 30.6524 191.153 31.0302V39.0072H189.102V27.844H190.828L191.084 29.1183C191.712 28.6466 192.321 28.2686 192.91 27.9853C193.5 27.702 194.177 27.5607 194.943 27.5607C195.342 27.5607 195.732 27.6315 196.115 27.7733C196.497 27.9148 196.842 28.1471 197.149 28.4693C197.455 28.7921 197.7 29.2048 197.883 29.7083C198.067 30.2123 198.159 30.8176 198.159 31.5255V39.007H196.108V39.0075H196.108ZM206.87 38.9956C206.24 39.1606 205.511 39.2432 204.681 39.2432C203.898 39.2432 203.161 39.1251 202.469 38.8888C201.778 38.6531 201.174 38.2988 200.66 37.8271C200.145 37.3547 199.734 36.7649 199.427 36.057C199.12 35.3488 198.966 34.5149 198.966 33.5548C198.966 32.6896 199.112 31.8912 199.404 31.1596C199.696 30.4283 200.103 29.7949 200.626 29.2601C201.148 28.7253 201.758 28.3078 202.457 28.0087C203.156 27.7101 203.913 27.5604 204.727 27.5604C205.081 27.5604 205.388 27.5765 205.649 27.6075C205.911 27.6394 206.148 27.6783 206.364 27.7259V22.2977H208.415V38.4174C208.015 38.6379 207.501 38.8304 206.87 38.9956ZM206.363 29.5439C206.148 29.465 205.933 29.4061 205.718 29.3666C205.503 29.3271 205.203 29.3072 204.819 29.3072C204.297 29.3072 203.805 29.4019 203.344 29.591C202.891 29.7756 202.479 30.0536 202.135 30.4078C201.789 30.7627 201.516 31.197 201.316 31.7097C201.116 32.2224 201.016 32.7945 201.016 33.4251C201.016 34.6089 201.347 35.583 202.007 36.3482C202.668 37.1137 203.651 37.4965 204.957 37.4965C205.216 37.4966 205.475 37.4727 205.729 37.4252C205.982 37.3776 206.194 37.3142 206.363 37.2352L206.363 29.5439V29.5439ZM212.724 39.1487C212.452 39.213 212.174 39.2447 211.894 39.2432C211.134 39.2432 210.59 39.0343 210.263 38.6174C209.937 38.2009 209.774 37.6777 209.774 37.0479V22.2977H211.825V36.128C211.825 36.6157 211.89 36.9425 212.021 37.1077C212.152 37.2731 212.37 37.3552 212.678 37.3552C212.755 37.3552 212.843 37.3515 212.943 37.3436C213.043 37.336 213.17 37.3079 213.323 37.2613L213.576 38.7955C213.269 38.968 212.985 39.0859 212.724 39.1487V39.1487ZM215.581 33.8857C215.581 34.3897 215.658 34.8577 215.812 35.2904C215.959 35.7131 216.186 36.1021 216.48 36.4353C216.772 36.7657 217.129 37.0251 217.552 37.2142C217.974 37.4028 218.462 37.4975 219.015 37.4975C219.491 37.4975 219.96 37.4228 220.421 37.2729C220.882 37.1237 221.297 36.939 221.666 36.7186L222.242 38.1031C221.766 38.4598 221.205 38.7399 220.559 38.9415C219.914 39.1435 219.269 39.2442 218.623 39.2442C217.732 39.2442 216.96 39.0811 216.307 38.7555C215.654 38.4293 215.116 37.9931 214.694 37.4454C214.271 36.8985 213.957 36.2672 213.749 35.5509C213.542 34.8354 213.438 34.0843 213.438 33.2972C213.438 32.4952 213.545 31.7476 213.761 31.0554C213.976 30.3631 214.287 29.757 214.694 29.2382C215.101 28.719 215.589 28.3138 216.157 28.0229C216.726 27.7314 217.356 27.586 218.047 27.586C218.754 27.586 219.387 27.7235 219.948 27.9987C220.505 28.2712 220.994 28.6708 221.377 29.1669C221.768 29.671 222.064 30.2763 222.264 30.9847C222.463 31.6923 222.564 32.4791 222.564 33.3446V33.887H215.581V33.8857H215.581ZM220.248 31.1599C220.148 30.8061 220.002 30.4875 219.81 30.2042C219.618 29.9209 219.372 29.6931 219.073 29.5197C218.773 29.3464 218.424 29.2601 218.024 29.2601C217.64 29.2601 217.298 29.339 216.999 29.496C216.699 29.6533 216.436 29.8746 216.227 30.145C216.011 30.4204 215.847 30.739 215.731 31.101C215.615 31.4669 215.557 31.8493 215.558 32.234H220.398C220.398 31.8705 220.347 31.5089 220.248 31.1599V31.1599Z" fill="#2F3032"/>
<rect x="176.241" y="68.6183" width="51.9695" height="3.38931" rx="1.69466" fill="#DEE3EA"/>
<rect x="176.241" y="84.4351" width="59.8779" height="3.38931" rx="1.69466" fill="#FFD504"/>
<rect x="176.241" y="60.7099" width="58.7481" height="3.38931" rx="1.69466" fill="#DEE3EA"/>
<rect x="176.241" y="76.5267" width="58.7481" height="3.38931" rx="1.69466" fill="#DEE3EA"/>
<rect x="176.241" y="92.3435" width="58.7481" height="3.38931" rx="1.69466" fill="#FFD504"/>
<rect x="176.241" y="52.8015" width="72.3053" height="3.38931" rx="1.69466" fill="#FFD504"/>
<path d="M223.694 0.832031L257.587 33.3694H231.694C227.275 33.3694 223.694 29.7877 223.694 25.3694V0.832031Z" fill="#D6DCE5"/>
<g filter="url(#filter6_d)">
<path d="M359.265 109.29H398.715C403.134 109.29 406.715 105.708 406.715 101.29V99.8L386.38 95.7328H359.265C355.521 95.7328 352.486 98.7677 352.486 102.511C352.486 106.255 355.521 109.29 359.265 109.29Z" fill="#F5F7F8"/>
</g>
<path d="M342.41 109.29H416.792C421.21 109.29 424.792 105.708 424.792 101.29V33.3694L390.899 0.832031H342.41C337.992 0.832031 334.41 4.41376 334.41 8.83203V101.29C334.41 105.708 337.992 109.29 342.41 109.29Z" fill="white"/>
<g clip-path="url(#clip1)">
<path d="M359.717 39.9673H368.936L366.767 37.7981L366.752 22.345L368.862 19.9101H362.344L357.334 32.2364L351.852 19.9025H345.075L347.244 22.6633V35.784L343.991 39.9673H351.583L348.329 35.784V24.1053L355.379 39.9673L355.378 39.9749L361.886 23.9941V37.7981L359.717 39.9673Z" fill="#2F3032"/>
</g>
<rect x="343.449" y="68.6183" width="51.9695" height="3.38931" rx="1.69466" fill="#F95A00"/>
<rect x="343.449" y="84.4351" width="59.8779" height="3.38931" rx="1.69466" fill="#F95A00"/>
<rect x="343.449" y="60.7099" width="58.7481" height="3.38931" rx="1.69466" fill="#DEE3EA"/>
<rect x="343.449" y="76.5267" width="58.7481" height="3.38931" rx="1.69466" fill="#DEE3EA"/>
<rect x="343.449" y="92.3435" width="58.7481" height="3.38931" rx="1.69466" fill="#DEE3EA"/>
<rect x="343.449" y="52.8015" width="72.3053" height="3.38931" rx="1.69466" fill="#DEE3EA"/>
<path d="M390.899 0.832031L424.792 33.3694H398.899C394.48 33.3694 390.899 29.7877 390.899 25.3694V0.832031Z" fill="#D6DCE5"/>
<g filter="url(#filter7_d)">
<path d="M526.474 109.29H565.924C570.343 109.29 573.924 105.708 573.924 101.29V99.8001L553.588 95.7329H526.474C522.73 95.7329 519.695 98.7678 519.695 102.512C519.695 106.255 522.73 109.29 526.474 109.29Z" fill="#F5F7F8"/>
</g>
<path d="M509.619 109.29H584.001C588.419 109.29 592.001 105.708 592.001 101.29V33.3694L558.108 0.832031H509.619C505.201 0.832031 501.619 4.41376 501.619 8.83203V101.29C501.619 105.708 505.201 109.29 509.619 109.29Z" fill="white"/>
<path d="M533.985 16.6489H512.184C511.34 16.6489 510.657 17.3322 510.657 18.1757V39.9781C510.657 40.8217 511.34 41.5039 512.184 41.5039H533.985C534.829 41.5039 535.512 40.8217 535.512 39.9781V18.1757C535.512 17.3322 534.829 16.6489 533.985 16.6489ZM527.071 20.5738C526.68 20.5326 526.243 20.5938 525.763 20.7562C525.283 20.9186 524.998 21.1548 524.91 21.4658C524.823 21.7758 524.779 22.5129 524.779 23.6748V34.3367C524.779 35.5799 524.829 36.3401 524.931 36.6174C525.034 36.8947 525.229 37.1235 525.52 37.3059C525.811 37.4884 526.327 37.5801 527.072 37.5801V37.8848H519.1V37.5801C520.1 37.5801 520.723 37.3871 520.966 37.0023C521.209 36.6185 521.332 35.7422 521.332 34.3778V23.9384C521.332 22.5192 521.197 21.5902 520.926 21.1516C520.656 20.7119 520.047 20.52 519.101 20.5738V20.269H527.073V20.5738H527.071Z" fill="#2F3032"/>
<rect x="510.657" y="68.6183" width="51.9695" height="3.38931" rx="1.69466" fill="#8349FF"/>
<rect x="510.657" y="84.4351" width="59.8779" height="3.38931" rx="1.69466" fill="#DEE3EA"/>
<rect x="510.657" y="60.7099" width="58.7481" height="3.38931" rx="1.69466" fill="#8349FF"/>
<rect x="510.657" y="76.5267" width="58.7481" height="3.38931" rx="1.69466" fill="#DEE3EA"/>
<rect x="510.657" y="92.3435" width="58.7481" height="3.38931" rx="1.69466" fill="#DEE3EA"/>
<rect x="510.658" y="52.8015" width="72.3053" height="3.38931" rx="1.69466" fill="#DEE3EA"/>
<circle cx="45.191" cy="127.366" r="4.01908" fill="white" stroke="#0090F9"/>
<circle cx="220.305" cy="200.802" r="4.01908" fill="white" stroke="#0090F9"/>
<circle cx="265.497" cy="200.802" r="4.01908" fill="white" stroke="#FFD504"/>
<circle cx="310.687" cy="200.802" r="4.01908" fill="white" stroke="#F95A00"/>
<circle cx="355.877" cy="200.802" r="4.01908" fill="white" stroke="#8349FF"/>
<circle cx="212.397" cy="127.366" r="4.01908" fill="white" stroke="#FFD504"/>
<circle cx="379.603" cy="127.366" r="4.01908" fill="white" stroke="#F95A00"/>
<path d="M216.562 127.013C216.366 127.208 216.366 127.525 216.562 127.72L219.743 130.902C219.939 131.097 220.255 131.097 220.451 130.902C220.646 130.707 220.646 130.39 220.451 130.195L217.622 127.366L220.451 124.538C220.646 124.343 220.646 124.026 220.451 123.831C220.255 123.636 219.939 123.636 219.743 123.831L216.562 127.013ZM216.915 127.866H217.423V126.866H216.915V127.866ZM218.438 127.866H218.946V126.866H218.438V127.866ZM218.946 127.866C219.591 127.866 220.229 127.898 220.858 127.959L220.955 126.964C220.294 126.899 219.623 126.866 218.946 126.866V127.866ZM224.608 128.701C225.841 129.075 227.023 129.567 228.139 130.165L228.611 129.284C227.437 128.655 226.195 128.137 224.898 127.744L224.608 128.701ZM231.316 132.292C232.303 133.103 233.209 134.009 234.02 134.996L234.793 134.361C233.94 133.324 232.988 132.372 231.951 131.519L231.316 132.292ZM236.147 138.173C236.745 139.289 237.237 140.471 237.611 141.704L238.568 141.414C238.175 140.117 237.657 138.875 237.028 137.701L236.147 138.173ZM238.353 145.454C238.414 146.083 238.446 146.721 238.446 147.366H239.446C239.446 146.689 239.413 146.018 239.348 145.357L238.353 145.454ZM238.446 147.366V149.456H239.446V147.366H238.446ZM238.446 153.635V157.815H239.446V153.635H238.446ZM238.446 161.994V166.174H239.446V161.994H238.446ZM238.446 170.353V174.532H239.446V170.353H238.446ZM238.446 178.712V180.802H239.446V178.712H238.446ZM238.446 180.802C238.446 181.479 238.479 182.15 238.543 182.811L239.538 182.714C239.477 182.085 239.446 181.447 239.446 180.802H238.446ZM239.323 186.754C239.716 188.051 240.234 189.293 240.863 190.467L241.744 189.995C241.146 188.879 240.654 187.697 240.28 186.464L239.323 186.754ZM243.098 193.807C243.951 194.844 244.903 195.796 245.94 196.649L246.575 195.876C245.588 195.065 244.682 194.159 243.871 193.172L243.098 193.807ZM249.28 198.884C250.454 199.513 251.696 200.031 252.993 200.424L253.283 199.467C252.05 199.093 250.869 198.601 249.752 198.003L249.28 198.884ZM256.936 201.204C257.597 201.269 258.268 201.302 258.946 201.302V200.302C258.3 200.302 257.662 200.27 257.033 200.209L256.936 201.204ZM258.946 201.302H259.453V200.302H258.946V201.302ZM260.468 201.302H260.976V200.302H260.468V201.302Z" fill="#FFD504"/>
<path d="M49.7099 127.866H51.6799V126.866H49.7099V127.866ZM55.6198 127.866H59.5596V126.866H55.6198V127.866ZM63.4995 127.866H67.4394V126.866H63.4995V127.866ZM71.3793 127.866H75.3192V126.866H71.3793V127.866ZM79.2591 127.866H83.1989V126.866H79.2591V127.866ZM87.1388 127.866H91.0787V126.866H87.1388V127.866ZM95.0186 127.866H98.9585V126.866H95.0186V127.866ZM102.898 127.866H106.838V126.866H102.898V127.866ZM110.778 127.866H112.748V126.866H110.778V127.866ZM112.748 127.866C113.394 127.866 114.032 127.898 114.661 127.959L114.758 126.964C114.096 126.899 113.426 126.866 112.748 126.866V127.866ZM118.411 128.701C119.644 129.075 120.825 129.567 121.942 130.165L122.414 129.284C121.24 128.655 119.997 128.137 118.701 127.744L118.411 128.701ZM125.119 132.292C126.106 133.103 127.012 134.009 127.823 134.996L128.595 134.361C127.743 133.324 126.791 132.372 125.754 131.519L125.119 132.292ZM129.949 138.173C130.547 139.289 131.04 140.471 131.413 141.704L132.37 141.414C131.977 140.117 131.46 138.875 130.831 137.701L129.949 138.173ZM132.156 145.454C132.217 146.083 132.248 146.721 132.248 147.366H133.248C133.248 146.688 133.215 146.018 133.151 145.357L132.156 145.454ZM132.248 147.366V149.456H133.248V147.366H132.248ZM132.248 153.635V157.815H133.248V153.635H132.248ZM132.248 161.994V166.174H133.248V161.994H132.248ZM132.248 170.353V174.532H133.248V170.353H132.248ZM132.248 178.712V180.801H133.248V178.712H132.248ZM132.248 180.801C132.248 181.479 132.281 182.15 132.345 182.811L133.341 182.714C133.279 182.085 133.248 181.447 133.248 180.801H132.248ZM133.126 186.754C133.519 188.051 134.037 189.293 134.665 190.467L135.547 189.995C134.949 188.879 134.456 187.697 134.083 186.464L133.126 186.754ZM136.901 193.807C137.753 194.844 138.705 195.796 139.743 196.649L140.377 195.876C139.39 195.065 138.485 194.159 137.674 193.172L136.901 193.807ZM143.082 198.884C144.256 199.513 145.499 200.031 146.795 200.424L147.085 199.467C145.852 199.093 144.671 198.601 143.555 198.003L143.082 198.884ZM150.739 201.204C151.4 201.269 152.07 201.302 152.748 201.302V200.302C152.103 200.302 151.465 200.27 150.835 200.209L150.739 201.204ZM152.748 201.302H154.718V200.302H152.748V201.302ZM158.658 201.302H162.598V200.302H158.658V201.302ZM166.538 201.302H170.478V200.302H166.538V201.302ZM174.417 201.302H178.357V200.302H174.417V201.302ZM182.297 201.302H186.237V200.302H182.297V201.302ZM190.177 201.302H194.117V200.302H190.177V201.302ZM198.057 201.302H201.997V200.302H198.057V201.302ZM205.937 201.302H209.876V200.302H205.937V201.302ZM213.816 201.302H215.786V200.302H213.816V201.302Z" fill="#79C7FF"/>
<path d="M315.206 201.302H317.69V200.302H315.206V201.302ZM322.66 201.302H325.145V200.302H322.66V201.302ZM325.145 201.302C325.823 201.302 326.493 201.269 327.154 201.204L327.057 200.209C326.428 200.27 325.79 200.302 325.145 200.302V201.302ZM331.097 200.424C332.394 200.031 333.636 199.513 334.81 198.884L334.338 198.003C333.222 198.601 332.04 199.093 330.807 199.467L331.097 200.424ZM338.15 196.649C339.187 195.796 340.14 194.844 340.992 193.807L340.219 193.172C339.408 194.159 338.502 195.065 337.515 195.876L338.15 196.649ZM343.227 190.467C343.856 189.293 344.374 188.051 344.767 186.754L343.81 186.464C343.436 187.697 342.944 188.879 342.346 189.995L343.227 190.467ZM345.547 182.811C345.612 182.15 345.645 181.479 345.645 180.802H344.645C344.645 181.447 344.613 182.085 344.552 182.714L345.547 182.811ZM345.645 180.802V178.712H344.645V180.802H345.645ZM345.645 174.532V170.353H344.645V174.532H345.645ZM345.645 166.174V161.994H344.645V166.174H345.645ZM345.645 157.815V153.635H344.645V157.815H345.645ZM345.645 149.456V147.366H344.645V149.456H345.645ZM345.645 147.366C345.645 146.721 345.676 146.083 345.737 145.454L344.742 145.357C344.678 146.018 344.645 146.689 344.645 147.366H345.645ZM346.479 141.704C346.853 140.471 347.345 139.289 347.943 138.173L347.062 137.701C346.433 138.875 345.915 140.117 345.522 141.414L346.479 141.704ZM350.07 134.996C350.881 134.009 351.787 133.103 352.774 132.292L352.139 131.519C351.102 132.372 350.15 133.324 349.298 134.361L350.07 134.996ZM355.951 130.165C357.068 129.567 358.249 129.075 359.482 128.701L359.192 127.744C357.895 128.137 356.653 128.655 355.479 129.284L355.951 130.165ZM363.232 127.959C363.861 127.898 364.499 127.866 365.145 127.866V126.866C364.467 126.866 363.796 126.899 363.135 126.964L363.232 127.959ZM365.145 127.866H367.629V126.866H365.145V127.866ZM372.599 127.866H375.084V126.866H372.599V127.866Z" fill="#FFAC7D"/>
<path d="M360.397 201.302H362.368V200.302H360.397V201.302ZM366.31 201.302H370.251V200.302H366.31V201.302ZM374.193 201.302H378.134V200.302H374.193V201.302ZM382.076 201.302H386.017V200.302H382.076V201.302ZM389.959 201.302H393.9V200.302H389.959V201.302ZM397.841 201.302H401.783V200.302H397.841V201.302ZM405.724 201.302H409.666V200.302H405.724V201.302ZM413.607 201.302H417.549V200.302H413.607V201.302ZM421.49 201.302H425.432V200.302H421.49V201.302ZM429.373 201.302H431.344V200.302H429.373V201.302ZM431.344 201.302C432.022 201.302 432.692 201.269 433.354 201.204L433.257 200.209C432.628 200.27 431.99 200.302 431.344 200.302V201.302ZM437.297 200.424C438.593 200.031 439.836 199.513 441.01 198.884L440.538 198.003C439.421 198.601 438.24 199.093 437.007 199.467L437.297 200.424ZM444.349 196.649C445.387 195.796 446.339 194.844 447.191 193.807L446.418 193.172C445.608 194.159 444.702 195.065 443.715 195.876L444.349 196.649ZM449.427 190.467C450.056 189.293 450.573 188.051 450.966 186.754L450.009 186.464C449.636 187.697 449.143 188.879 448.545 189.995L449.427 190.467ZM451.747 182.811C451.811 182.15 451.844 181.479 451.844 180.802H450.844C450.844 181.447 450.813 182.085 450.751 182.714L451.747 182.811ZM451.844 180.802V178.712H450.844V180.802H451.844ZM451.844 174.532V170.353H450.844V174.532H451.844ZM451.844 166.174V161.994H450.844V166.174H451.844ZM451.844 157.815V153.636H450.844V157.815H451.844ZM451.844 149.456V147.366H450.844V149.456H451.844ZM451.844 147.366C451.844 146.721 451.875 146.083 451.937 145.454L450.941 145.357C450.877 146.018 450.844 146.689 450.844 147.366H451.844ZM452.679 141.704C453.052 140.471 453.545 139.289 454.143 138.173L453.261 137.701C452.633 138.875 452.115 140.117 451.722 141.414L452.679 141.704ZM456.27 134.996C457.08 134.009 457.986 133.103 458.973 132.292L458.339 131.519C457.301 132.372 456.349 133.324 455.497 134.361L456.27 134.996ZM462.15 130.165C463.267 129.567 464.448 129.075 465.681 128.701L465.391 127.744C464.095 128.137 462.852 128.655 461.678 129.284L462.15 130.165ZM469.431 127.959C470.06 127.898 470.699 127.866 471.344 127.866V126.866C470.666 126.866 469.996 126.899 469.334 126.964L469.431 127.959ZM471.344 127.866H473.315V126.866H471.344V127.866ZM477.256 127.866H481.198V126.866H477.256V127.866ZM485.139 127.866H489.081V126.866H485.139V127.866ZM493.022 127.866H496.964V126.866H493.022V127.866ZM500.905 127.866H504.847V126.866H500.905V127.866ZM508.788 127.866H512.73V126.866H508.788V127.866ZM516.671 127.866H520.612V126.866H516.671V127.866ZM524.554 127.866H528.495V126.866H524.554V127.866ZM532.437 127.866H536.378V126.866H532.437V127.866ZM540.32 127.866H542.291V126.866H540.32V127.866Z" fill="#B897FF"/>
<defs>
<filter id="filter0_d" x="321.575" y="267.626" width="68.6046" height="41.0382" filterUnits="userSpaceOnUse" color-interpolation-filters="sRGB">
<feFlood flood-opacity="0" result="BackgroundImageFix"/>
<feColorMatrix in="SourceAlpha" type="matrix" values="0 0 0 0 0 0 0 0 0 0 0 0 0 0 0 0 0 0 127 0"/>
<feOffset dy="6"/>
<feGaussianBlur stdDeviation="8"/>
<feColorMatrix type="matrix" values="0 0 0 0 0.785865 0 0 0 0 0.79833 0 0 0 0 0.812963 0 0 0 1 0"/>
<feBlend mode="normal" in2="BackgroundImageFix" result="effect1_dropShadow"/>
<feBlend mode="normal" in="SourceGraphic" in2="effect1_dropShadow" result="shape"/>
</filter>
<filter id="filter1_d" x="276.386" y="267.626" width="68.6046" height="41.0382" filterUnits="userSpaceOnUse" color-interpolation-filters="sRGB">
<feFlood flood-opacity="0" result="BackgroundImageFix"/>
<feColorMatrix in="SourceAlpha" type="matrix" values="0 0 0 0 0 0 0 0 0 0 0 0 0 0 0 0 0 0 127 0"/>
<feOffset dy="6"/>
<feGaussianBlur stdDeviation="8"/>
<feColorMatrix type="matrix" values="0 0 0 0 0.785865 0 0 0 0 0.79833 0 0 0 0 0.812963 0 0 0 1 0"/>
<feBlend mode="normal" in2="BackgroundImageFix" result="effect1_dropShadow"/>
<feBlend mode="normal" in="SourceGraphic" in2="effect1_dropShadow" result="shape"/>
</filter>
<filter id="filter2_d" x="231.195" y="267.626" width="68.6046" height="41.0382" filterUnits="userSpaceOnUse" color-interpolation-filters="sRGB">
<feFlood flood-opacity="0" result="BackgroundImageFix"/>
<feColorMatrix in="SourceAlpha" type="matrix" values="0 0 0 0 0 0 0 0 0 0 0 0 0 0 0 0 0 0 127 0"/>
<feOffset dy="6"/>
<feGaussianBlur stdDeviation="8"/>
<feColorMatrix type="matrix" values="0 0 0 0 0.785865 0 0 0 0 0.79833 0 0 0 0 0.812963 0 0 0 1 0"/>
<feBlend mode="normal" in2="BackgroundImageFix" result="effect1_dropShadow"/>
<feBlend mode="normal" in="SourceGraphic" in2="effect1_dropShadow" result="shape"/>
</filter>
<filter id="filter3_d" x="186.005" y="267.626" width="68.6046" height="41.0382" filterUnits="userSpaceOnUse" color-interpolation-filters="sRGB">
<feFlood flood-opacity="0" result="BackgroundImageFix"/>
<feColorMatrix in="SourceAlpha" type="matrix" values="0 0 0 0 0 0 0 0 0 0 0 0 0 0 0 0 0 0 127 0"/>
<feOffset dy="6"/>
<feGaussianBlur stdDeviation="8"/>
<feColorMatrix type="matrix" values="0 0 0 0 0.785865 0 0 0 0 0.79833 0 0 0 0 0.812963 0 0 0 1 0"/>
<feBlend mode="normal" in2="BackgroundImageFix" result="effect1_dropShadow"/>
<feBlend mode="normal" in="SourceGraphic" in2="effect1_dropShadow" result="shape"/>
</filter>
<filter id="filter4_d" x="2.07632" y="85.7328" width="86.229" height="45.5573" filterUnits="userSpaceOnUse" color-interpolation-filters="sRGB">
<feFlood flood-opacity="0" result="BackgroundImageFix"/>
<feColorMatrix in="SourceAlpha" type="matrix" values="0 0 0 0 0 0 0 0 0 0 0 0 0 0 0 0 0 0 127 0"/>
<feOffset dy="6"/>
<feGaussianBlur stdDeviation="8"/>
<feColorMatrix type="matrix" values="0 0 0 0 0.785865 0 0 0 0 0.79833 0 0 0 0 0.812963 0 0 0 1 0"/>
<feBlend mode="normal" in2="BackgroundImageFix" result="effect1_dropShadow"/>
<feBlend mode="normal" in="SourceGraphic" in2="effect1_dropShadow" result="shape"/>
</filter>
<filter id="filter5_d" x="169.281" y="85.7328" width="86.229" height="45.5573" filterUnits="userSpaceOnUse" color-interpolation-filters="sRGB">
<feFlood flood-opacity="0" result="BackgroundImageFix"/>
<feColorMatrix in="SourceAlpha" type="matrix" values="0 0 0 0 0 0 0 0 0 0 0 0 0 0 0 0 0 0 127 0"/>
<feOffset dy="6"/>
<feGaussianBlur stdDeviation="8"/>
<feColorMatrix type="matrix" values="0 0 0 0 0.785865 0 0 0 0 0.79833 0 0 0 0 0.812963 0 0 0 1 0"/>
<feBlend mode="normal" in2="BackgroundImageFix" result="effect1_dropShadow"/>
<feBlend mode="normal" in="SourceGraphic" in2="effect1_dropShadow" result="shape"/>
</filter>
<filter id="filter6_d" x="336.486" y="85.7328" width="86.229" height="45.5573" filterUnits="userSpaceOnUse" color-interpolation-filters="sRGB">
<feFlood flood-opacity="0" result="BackgroundImageFix"/>
<feColorMatrix in="SourceAlpha" type="matrix" values="0 0 0 0 0 0 0 0 0 0 0 0 0 0 0 0 0 0 127 0"/>
<feOffset dy="6"/>
<feGaussianBlur stdDeviation="8"/>
<feColorMatrix type="matrix" values="0 0 0 0 0.785865 0 0 0 0 0.79833 0 0 0 0 0.812963 0 0 0 1 0"/>
<feBlend mode="normal" in2="BackgroundImageFix" result="effect1_dropShadow"/>
<feBlend mode="normal" in="SourceGraphic" in2="effect1_dropShadow" result="shape"/>
</filter>
<filter id="filter7_d" x="503.695" y="85.7329" width="86.229" height="45.5573" filterUnits="userSpaceOnUse" color-interpolation-filters="sRGB">
<feFlood flood-opacity="0" result="BackgroundImageFix"/>
<feColorMatrix in="SourceAlpha" type="matrix" values="0 0 0 0 0 0 0 0 0 0 0 0 0 0 0 0 0 0 127 0"/>
<feOffset dy="6"/>
<feGaussianBlur stdDeviation="8"/>
<feColorMatrix type="matrix" values="0 0 0 0 0.785865 0 0 0 0 0.79833 0 0 0 0 0.812963 0 0 0 1 0"/>
<feBlend mode="normal" in2="BackgroundImageFix" result="effect1_dropShadow"/>
<feBlend mode="normal" in="SourceGraphic" in2="effect1_dropShadow" result="shape"/>
</filter>
<linearGradient id="paint0_linear" x1="278.664" y1="285.535" x2="308.806" y2="290.724" gradientUnits="userSpaceOnUse">
<stop stop-color="#F8ED32"/>
<stop offset="0.31137" stop-color="#F8EB31"/>
<stop offset="0.47614" stop-color="#F8E32C"/>
<stop offset="0.60656" stop-color="#F8D525"/>
<stop offset="0.71833" stop-color="#F9C21A"/>
<stop offset="0.75151" stop-color="#F9BB16"/>
<stop offset="1" stop-color="#F68C1F"/>
</linearGradient>
<radialGradient id="paint1_radial" cx="0" cy="0" r="1" gradientUnits="userSpaceOnUse" gradientTransform="translate(-74041.4 -195691) rotate(-108.917) scale(309.029 226.805)">
<stop stop-color="#FFF5AB"/>
<stop offset="0.47778" stop-color="#FFFFFD"/>
<stop offset="0.66419" stop-color="#FFFEF6"/>
<stop offset="0.79969" stop-color="#FFFDEA"/>
<stop offset="0.90979" stop-color="#FFFAD9"/>
<stop offset="1" stop-color="#FFF5AB"/>
</radialGradient>
<radialGradient id="paint2_radial" cx="0" cy="0" r="1" gradientUnits="userSpaceOnUse" gradientTransform="translate(74634.1 196263) rotate(71.0833) scale(309.029 226.805)">
<stop stop-color="#FFF5AB"/>
<stop offset="0.47778" stop-color="#FFFFFD"/>
<stop offset="0.66419" stop-color="#FFFEF6"/>
<stop offset="0.79969" stop-color="#FFFDEA"/>
<stop offset="0.90979" stop-color="#FFFAD9"/>
<stop offset="1" stop-color="#FFF5AB"/>
</radialGradient>
<linearGradient id="paint3_linear" x1="9.03726" y1="62.4046" x2="67.7854" y2="62.4046" gradientUnits="userSpaceOnUse">
<stop stop-color="#E2E5EF"/>
<stop offset="1" stop-color="#E7E9F2" stop-opacity="0.24"/>
</linearGradient>
<linearGradient id="paint4_linear" x1="9.03726" y1="78.2213" x2="67.7854" y2="78.2213" gradientUnits="userSpaceOnUse">
<stop stop-color="#E2E5EF"/>
<stop offset="1" stop-color="#E7E9F2" stop-opacity="0.24"/>
</linearGradient>
<linearGradient id="paint5_linear" x1="9.03726" y1="94.0382" x2="67.7854" y2="94.0382" gradientUnits="userSpaceOnUse">
<stop stop-color="#E2E5EF"/>
<stop offset="1" stop-color="#E7E9F2" stop-opacity="0.24"/>
</linearGradient>
<linearGradient id="paint6_linear" x1="9.03815" y1="54.4962" x2="81.3435" y2="54.4962" gradientUnits="userSpaceOnUse">
<stop stop-color="#E2E5EF"/>
<stop offset="1" stop-color="#E7E9F2" stop-opacity="0.24"/>
</linearGradient>
<clipPath id="clip0">
<rect width="45.1908" height="36.1527" fill="white" transform="translate(273.392 268.588)"/>
</clipPath>
<clipPath id="clip1">
<rect width="27.1145" height="27.1145" fill="white" transform="translate(343.448 16.6488)"/>
</clipPath>
</defs>
</svg>
