<svg width="50" height="40" viewBox="0 0 50 40" fill="none" xmlns="http://www.w3.org/2000/svg">
<g clip-path="url(#clip0)">
<path d="M32.8044 12.7084C31.2973 11.7149 29.5956 11.0453 27.8094 10.7431C26.0233 10.4408 24.1927 10.5126 22.4365 10.9538C20.7574 11.4471 19.2138 12.3104 17.9221 13.4785C16.6304 14.6466 15.6244 16.0891 14.9799 17.697C14.0894 19.7903 13.7944 22.0838 14.1268 24.3304C14.2248 24.9714 14.3793 25.6028 14.5887 26.2173C15.0804 27.5862 15.7792 28.8738 16.6614 30.0362C18.2728 32.1976 20.3209 34.0055 22.6764 35.3457C25.435 36.8907 28.5019 37.6127 31.2999 36.8293C34.0979 36.0451 36.1776 33.8832 37.4864 31.1985C38.5975 28.869 39.1596 26.3214 39.1304 23.7469C39.1279 22.3174 38.8988 20.8972 38.4516 19.5376C38.2387 18.9183 37.9719 18.3184 37.6544 17.7445C36.493 15.6895 34.8248 13.9573 32.8044 12.7084Z" fill="url(#paint0_linear)"/>
<path d="M32.387 40.0001L28.416 36.6751L33.5821 35.2285L32.387 40.0001Z" fill="black"/>
<path d="M32.8049 12.7084C31.2979 11.7149 29.5961 11.0453 27.8099 10.7431C26.0238 10.4408 24.1932 10.5126 22.437 10.9538C20.758 11.4471 19.2143 12.3104 17.9226 13.4785C16.6309 14.6466 15.6249 16.0891 14.9805 17.697C17.7293 16.2916 20.6157 15.1652 23.595 14.3353C26.6026 13.4924 29.6878 12.9474 32.8049 12.7084Z" fill="black"/>
<path d="M14.127 24.33C14.2249 24.9711 14.3794 25.6025 14.5888 26.217C15.0805 27.5859 15.7793 28.8734 16.6615 30.0359C19.9426 27.899 23.549 26.294 27.344 25.282C31.1687 24.1716 35.1449 23.6536 39.1305 23.7465C39.128 22.3171 38.8989 20.8968 38.4517 19.5372C38.2388 18.918 37.972 18.3181 37.6545 17.7441C33.4996 17.8031 29.3714 18.4093 25.3791 19.5467C21.4245 20.6261 17.6386 22.2355 14.127 24.33Z" fill="black"/>
<path d="M22.6758 35.3455C25.4344 36.8905 28.5013 37.6125 31.2993 36.8291C34.0973 36.0449 36.177 33.883 37.4858 31.1982C34.8788 31.2878 32.2933 31.6984 29.7894 32.4205C27.301 33.0906 24.9102 34.0736 22.6758 35.3455Z" fill="black"/>
<path opacity="0.86" d="M10.8767 16.2563C4.08599 18.1565 1.52029 22.2345 0.864855 26.3601C0.259186 30.1733 8.65254 31.4832 15.4418 29.5813C22.2319 27.6813 25.4551 19.4774 25.4551 19.4774C25.4551 19.4774 17.6667 14.3557 10.8767 16.2563Z" fill="url(#paint1_radial)"/>
<path opacity="0.86" d="M39.9573 22.7682C46.748 20.8679 49.3137 16.79 49.9691 12.6643C50.5748 8.85116 42.1814 7.54122 35.3922 9.44313C28.6021 11.3431 25.3789 19.547 25.3789 19.547C25.3789 19.547 33.1673 24.6687 39.9573 22.7682Z" fill="url(#paint2_radial)"/>
<path d="M19.366 7.67493C18.3753 6.5216 16.4498 4.50977 14.691 3.98733C14.2428 3.84483 13.7621 3.83605 13.3089 3.9621C13.2245 3.87224 13.1164 3.80737 12.9967 3.77476C12.877 3.74215 12.7505 3.74309 12.6313 3.77747C12.5548 3.79513 12.4827 3.82811 12.4196 3.87438C12.3564 3.92064 12.3036 3.9792 12.2643 4.04644C12.225 4.11368 12.2002 4.18816 12.1912 4.26527C12.1823 4.34238 12.1895 4.42049 12.2124 4.49474C12.2722 4.6451 12.3874 4.76757 12.5348 4.83762C12.6823 4.90767 12.8511 4.92011 13.0075 4.87245C13.0839 4.85458 13.1557 4.82144 13.2186 4.77509C13.2815 4.72873 13.3341 4.67014 13.3732 4.60293C13.4123 4.53572 13.437 4.46132 13.4457 4.38432C13.4545 4.30732 13.4473 4.22936 13.4243 4.15525C13.4167 4.1342 13.408 4.11358 13.3981 4.09348C13.8063 3.98021 14.2398 3.99294 14.6405 4.12996C17.5035 4.97993 21.5654 10.3559 21.8875 11.845L22.0507 11.816C21.882 11.0397 20.7295 9.25985 19.366 7.67493Z" fill="black"/>
<path d="M22.9177 6.6812C23.0152 5.22388 23.3449 2.58108 24.4698 1.25171C24.7511 0.891742 25.1468 0.635533 25.5933 0.524241C25.6075 0.406563 25.6575 0.295897 25.7367 0.206879C25.816 0.117861 25.9207 0.0546835 26.0371 0.0257011C26.1932 -0.0221257 26.3619 -0.00969834 26.5091 0.0604737C26.6563 0.130646 26.771 0.253334 26.8301 0.403763C26.8533 0.477898 26.8608 0.555947 26.852 0.633048C26.8433 0.710148 26.8186 0.784646 26.7794 0.851903C26.7402 0.919161 26.6874 0.977738 26.6243 1.02398C26.5612 1.07022 26.4891 1.10314 26.4126 1.12068C26.2565 1.16829 26.088 1.15571 25.9409 1.08548C25.7939 1.01525 25.6793 0.892605 25.6203 0.74227C25.6125 0.721289 25.6065 0.699716 25.6023 0.677769C25.2047 0.786984 24.8535 1.02015 24.6012 1.34249C22.769 3.50646 22.7794 10.0176 23.4445 11.4088L23.2945 11.4689C22.946 10.7424 22.7842 8.68485 22.9177 6.6812Z" fill="black"/>
<path d="M22.108 11.5551C22.2107 11.8598 22.2486 12.1821 22.2194 12.5019C22.1902 12.8217 22.0945 13.1322 21.9382 13.4138C21.782 13.6955 21.5685 13.9423 21.3113 14.1388C21.0541 14.3354 20.7585 14.4775 20.4431 14.5562C19.7994 14.7645 19.0996 14.7253 18.484 14.4463C17.8683 14.1672 17.382 13.669 17.1225 13.0513C17.02 12.7466 16.9822 12.4242 17.0116 12.1044C17.041 11.7846 17.1369 11.4742 17.2932 11.1925C17.4496 10.9109 17.6631 10.6642 17.9204 10.4676C18.1777 10.2711 18.4733 10.1291 18.7887 10.0503C19.4322 9.84169 20.1319 9.88082 20.7474 10.1599C21.363 10.4389 21.849 10.9373 22.108 11.5551Z" fill="white"/>
<path d="M29.4472 9.53034C29.5498 9.83503 29.5877 10.1573 29.5585 10.4771C29.5293 10.7969 29.4335 11.1073 29.2773 11.389C29.1211 11.6706 28.9077 11.9174 28.6504 12.114C28.3932 12.3105 28.0977 12.4526 27.7823 12.5314C27.1388 12.7402 26.4391 12.7011 25.8235 12.422C25.2079 12.143 24.722 11.6445 24.4631 11.0266C24.3603 10.722 24.3222 10.3997 24.3513 10.0799C24.3804 9.76011 24.476 9.44967 24.6322 9.16803C24.7884 8.88638 25.0018 8.63957 25.259 8.44305C25.5162 8.24652 25.8118 8.10449 26.1272 8.02585C26.7708 7.81729 27.4705 7.85642 28.0861 8.1354C28.7017 8.41438 29.1879 8.91262 29.4472 9.53034Z" fill="white"/>
<path d="M27.6745 10.1999C27.7052 10.2907 27.7166 10.3869 27.7079 10.4822C27.6993 10.5776 27.6707 10.6702 27.6241 10.7542C27.5775 10.8382 27.5138 10.9118 27.4371 10.9703C27.3603 11.0289 27.2721 11.0712 27.1781 11.0945C26.9863 11.1568 26.7777 11.1452 26.5942 11.0621C26.4107 10.9789 26.2659 10.8303 26.1887 10.6462C26.1579 10.5554 26.1465 10.4593 26.1551 10.364C26.1637 10.2686 26.1922 10.1761 26.2387 10.0921C26.2853 10.0081 26.3489 9.93449 26.4256 9.87589C26.5023 9.8173 26.5904 9.77496 26.6844 9.75154C26.8763 9.68919 27.085 9.70075 27.2686 9.7839C27.4522 9.86706 27.5972 10.0157 27.6745 10.1999Z" fill="black"/>
<path d="M20.3598 12.1433C20.3905 12.2342 20.4018 12.3303 20.3931 12.4257C20.3844 12.5211 20.3558 12.6137 20.3091 12.6977C20.2624 12.7816 20.1987 12.8552 20.1219 12.9137C20.045 12.9722 19.9568 13.0144 19.8627 13.0377C19.671 13.0999 19.4625 13.0882 19.2792 13.0051C19.0958 12.9219 18.9511 12.7734 18.874 12.5893C18.8434 12.4985 18.832 12.4025 18.8407 12.3072C18.8494 12.2119 18.8779 12.1194 18.9244 12.0355C18.9709 11.9516 19.0345 11.878 19.1111 11.8194C19.1877 11.7608 19.2758 11.7184 19.3697 11.6949C19.5616 11.6325 19.7703 11.6441 19.9539 11.7272C20.1376 11.8104 20.2826 11.959 20.3598 12.1433Z" fill="black"/>
</g>
<defs>
<linearGradient id="paint0_linear" x1="5.83354" y1="18.7501" x2="39.1827" y2="24.4914" gradientUnits="userSpaceOnUse">
<stop stop-color="#F8ED32"/>
<stop offset="0.31137" stop-color="#F8EB31"/>
<stop offset="0.47614" stop-color="#F8E32C"/>
<stop offset="0.60656" stop-color="#F8D525"/>
<stop offset="0.71833" stop-color="#F9C21A"/>
<stop offset="0.75151" stop-color="#F9BB16"/>
<stop offset="1" stop-color="#F68C1F"/>
</linearGradient>
<radialGradient id="paint1_radial" cx="0" cy="0" r="1" gradientUnits="userSpaceOnUse" gradientTransform="translate(-82223.3 -216813) rotate(-108.917) scale(341.915 250.942)">
<stop stop-color="#FFF5AB"/>
<stop offset="0.47778" stop-color="#FFFFFD"/>
<stop offset="0.66419" stop-color="#FFFEF6"/>
<stop offset="0.79969" stop-color="#FFFDEA"/>
<stop offset="0.90979" stop-color="#FFFAD9"/>
<stop offset="1" stop-color="#FFF5AB"/>
</radialGradient>
<radialGradient id="paint2_radial" cx="0" cy="0" r="1" gradientUnits="userSpaceOnUse" gradientTransform="translate(82274.1 216852) rotate(71.0833) scale(341.915 250.942)">
<stop stop-color="#FFF5AB"/>
<stop offset="0.47778" stop-color="#FFFFFD"/>
<stop offset="0.66419" stop-color="#FFFEF6"/>
<stop offset="0.79969" stop-color="#FFFDEA"/>
<stop offset="0.90979" stop-color="#FFFAD9"/>
<stop offset="1" stop-color="#FFF5AB"/>
</radialGradient>
<clipPath id="clip0">
<rect width="50" height="40" fill="white"/>
</clipPath>
</defs>
</svg>
